<svg width="19" height="18" viewBox="0 0 19 18" fill="none" xmlns="http://www.w3.org/2000/svg">
    <path d="M8.14931 1.59397L6.84028 2.08355C6.73611 2.12174 6.66667 2.22244 6.66667 2.33355C6.66667 2.44466 6.73611 2.54536 6.84028 2.58355L8.14931 3.07313L8.63889 4.38216C8.67708 4.48633 8.77778 4.55577 8.88889 4.55577C9 4.55577 9.1007 4.48633 9.13889 4.38216L9.62847 3.07313L10.9375 2.58355C11.0417 2.54536 11.1111 2.44466 11.1111 2.33355C11.1111 2.22244 11.0417 2.12174 10.9375 2.08355L9.62847 1.59397L9.13889 0.284939C9.1007 0.180773 9 0.111328 8.88889 0.111328C8.77778 0.111328 8.67708 0.180773 8.63889 0.284939L8.14931 1.59397ZM1.60069 13.8405C0.951389 14.4898 0.951389 15.5454 1.60069 16.1981L2.80208 17.3995C3.45139 18.0488 4.50695 18.0488 5.15972 17.3995L18.3993 4.15647C19.0486 3.50716 19.0486 2.45161 18.3993 1.79883L17.1979 0.600911C16.5486 -0.0483941 15.4931 -0.0483941 14.8403 0.600911L1.60069 13.8405ZM16.8264 2.97938L13.1806 6.62522L12.3715 5.81619L16.0174 2.17036L16.8264 2.97938ZM0.260417 4.18077C0.104167 4.2398 0 4.38911 0 4.55577C0 4.72244 0.104167 4.87175 0.260417 4.93077L2.22222 5.66688L2.95833 7.62869C3.01736 7.78494 3.16667 7.88911 3.33333 7.88911C3.5 7.88911 3.64931 7.78494 3.70833 7.62869L4.44444 5.66688L6.40625 4.93077C6.5625 4.87175 6.66667 4.72244 6.66667 4.55577C6.66667 4.38911 6.5625 4.2398 6.40625 4.18077L4.44444 3.44466L3.70833 1.48286C3.64931 1.32661 3.5 1.22244 3.33333 1.22244C3.16667 1.22244 3.01736 1.32661 2.95833 1.48286L2.22222 3.44466L0.260417 4.18077ZM12.4826 13.0697C12.3264 13.1287 12.2222 13.278 12.2222 13.4447C12.2222 13.6113 12.3264 13.7606 12.4826 13.8197L14.4444 14.5558L15.1806 16.5176C15.2396 16.6738 15.3889 16.778 15.5556 16.778C15.7222 16.778 15.8715 16.6738 15.9306 16.5176L16.6667 14.5558L18.6285 13.8197C18.7847 13.7606 18.8889 13.6113 18.8889 13.4447C18.8889 13.278 18.7847 13.1287 18.6285 13.0697L16.6667 12.3336L15.9306 10.3717C15.8715 10.2155 15.7222 10.1113 15.5556 10.1113C15.3889 10.1113 15.2396 10.2155 15.1806 10.3717L14.4444 12.3336L12.4826 13.0697Z" fill="#10AC84"/>
</svg>
