<svg width="197" height="40" viewBox="0 0 725 108" fill="none" xmlns="http://www.w3.org/2000/svg">
<path fill-rule="evenodd" clip-rule="evenodd" d="M103 5C99.8397 5 97.2778 7.56193 97.2778 10.7222C97.2778 13.8825 99.8397 16.4444 103 16.4444H127.397L144.162 55.7073C136.587 60.8545 131.611 69.5406 131.611 79.3889C131.611 95.1904 144.421 108 160.222 108C176.024 108 188.833 95.1904 188.833 79.3889C188.833 63.5874 176.024 50.7778 160.222 50.7778C158.122 50.7778 156.074 51.0041 154.102 51.4338L135.957 8.93754C135.163 7.07757 133.411 5.83861 131.441 5.67117C130.639 5.24282 129.723 5 128.75 5H103ZM57.2222 108C72.6497 108 85.4846 96.8996 88.1755 82.25H103C118.801 82.25 131.611 69.4404 131.611 53.6389C131.611 37.8374 118.801 25.0278 103 25.0278H34.2833L27.0987 10.1527C25.7243 7.30694 22.3031 6.11423 19.4573 7.48871C16.6116 8.86319 15.4189 12.2844 16.7934 15.1301L21.5739 25.0278H5.72222C2.56193 25.0278 0 27.5897 0 30.75V59.3611C0 72.0023 10.2477 82.25 22.8889 82.25H26.2689C28.9598 96.8996 41.7947 108 57.2222 108ZM103 70.8056H88.1755C85.4846 56.156 72.6497 45.0556 57.2222 45.0556C41.7947 45.0556 28.9598 56.156 26.2689 70.8056H22.8889C16.5683 70.8056 11.4444 65.6817 11.4444 59.3611V36.4722H103C112.481 36.4722 120.167 44.158 120.167 53.6389C120.167 63.1198 112.481 70.8056 103 70.8056ZM77.25 76.5278C77.25 87.5888 68.2832 96.5556 57.2222 96.5556C46.1612 96.5556 37.1944 87.5888 37.1944 76.5278C37.1944 65.4667 46.1612 56.5 57.2222 56.5C68.2832 56.5 77.25 65.4667 77.25 76.5278ZM160.222 96.5556C169.703 96.5556 177.389 88.8698 177.389 79.3889C177.389 69.908 169.703 62.2222 160.222 62.2222C150.741 62.2222 143.056 69.908 143.056 79.3889C143.056 88.8698 150.741 96.5556 160.222 96.5556Z" fill="#ECA106"/>
<path d="M270.271 34.7371H290.816C290.519 16.7781 275.667 4.37904 253.091 4.37904C230.862 4.37904 214.574 16.5813 214.673 34.8847C214.624 49.744 225.169 58.256 242.299 62.3399L253.339 65.0952C264.379 67.7522 270.518 70.9011 270.568 77.6911C270.518 85.0715 263.488 90.0902 252.596 90.0902C241.457 90.0902 233.437 84.9731 232.744 74.8866H212C212.545 96.6834 228.239 107.951 252.844 107.951C277.598 107.951 292.153 96.1913 292.203 77.7403C292.153 60.9622 279.43 52.0565 261.805 48.1203L252.695 45.9554C243.883 43.938 236.506 40.6907 236.655 33.4579C236.655 26.9631 242.447 22.1904 252.943 22.1904C263.191 22.1904 269.479 26.8155 270.271 34.7371Z" fill="#ECA106"/>
<path d="M306.226 106.524H327.316V30.9485H306.226V106.524ZM316.82 21.2064C323.108 21.2064 328.257 16.4337 328.257 10.5786C328.257 4.77267 323.108 0 316.82 0C310.582 0 305.434 4.77267 305.434 10.5786C305.434 16.4337 310.582 21.2064 316.82 21.2064Z" fill="#ECA106"/>
<path d="M372.232 107.754C384.51 107.754 390.896 100.718 393.817 94.42H394.709V106.524H415.502V5.75672H394.461V43.6428H393.817C390.996 37.4925 384.906 29.9645 372.183 29.9645C355.498 29.9645 341.389 42.8556 341.389 68.8346C341.389 94.1248 354.904 107.754 372.232 107.754ZM378.916 91.0743C368.568 91.0743 362.925 81.9225 362.925 68.7362C362.925 55.6483 368.469 46.6442 378.916 46.6442C389.164 46.6442 394.907 55.2547 394.907 68.7362C394.907 82.2178 389.065 91.0743 378.916 91.0743Z" fill="#ECA106"/>
<path d="M467.497 108C486.31 108 498.984 98.8975 501.955 84.8747L482.449 83.5955C480.32 89.3522 474.874 92.3535 467.844 92.3535C457.299 92.3535 450.615 85.4159 450.615 74.1485V74.0993H502.4V68.3426C502.4 42.6588 486.756 29.9645 466.656 29.9645C444.278 29.9645 429.773 45.7585 429.773 69.0806C429.773 93.0424 444.08 108 467.497 108ZM450.615 61.1098C451.061 52.4993 457.645 45.6109 467.002 45.6109C476.161 45.6109 482.498 52.1057 482.548 61.1098H450.615Z" fill="#ECA106"/>
<path d="M550.522 108C570.771 108 583.494 96.1913 584.484 78.8228H564.582C563.345 86.892 557.998 91.4187 550.77 91.4187C540.918 91.4187 534.531 83.2018 534.531 68.7362C534.531 54.4674 540.967 46.2998 550.77 46.2998C558.493 46.2998 563.444 51.3677 564.582 58.8957H584.484C583.593 41.4287 570.276 29.9645 550.423 29.9645C527.352 29.9645 513.094 45.8569 513.094 69.0314C513.094 92.0091 527.105 108 550.522 108Z" fill="#ECA106"/>
<path d="M619.672 107.951C630.91 107.951 638.188 103.08 641.901 96.0437H642.495V106.524H662.496V55.5499C662.496 37.5417 647.149 29.9645 630.217 29.9645C611.998 29.9645 600.018 38.6241 597.097 52.4009L616.603 53.9754C618.038 48.9567 622.544 45.2665 630.118 45.2665C637.297 45.2665 641.406 48.8583 641.406 55.0579V55.3531C641.406 60.2241 636.208 60.8638 622.989 62.1431C607.939 63.5207 594.423 68.5394 594.423 85.4159C594.423 100.374 605.166 107.951 619.672 107.951ZM625.712 93.4852C619.227 93.4852 614.573 90.4838 614.573 84.7271C614.573 78.8228 619.474 75.9198 626.9 74.8866C631.504 74.2469 639.03 73.1645 641.555 71.4916V79.5116C641.555 87.4333 634.97 93.4852 625.712 93.4852Z" fill="#ECA106"/>
<path d="M678.859 106.524H699.949V63.7667C699.949 54.4674 706.781 48.0711 716.089 48.0711C719.01 48.0711 723.02 48.5631 725 49.2027V30.6041C723.119 30.1613 720.495 29.8661 718.366 29.8661C709.851 29.8661 702.87 34.7863 700.098 44.1349H699.305V30.9485H678.859V106.524Z" fill="#ECA106"/>
</svg>
