<svg xmlns="http://www.w3.org/2000/svg" xmlns:xlink="http://www.w3.org/1999/xlink" width="500" zoomAndPan="magnify" viewBox="0 0 375 374.999991" height="500" preserveAspectRatio="xMidYMid meet" version="1.0"><defs><g/><clipPath id="id1"><path d="M 80.25 37.5 L 297 37.5 L 297 255 L 80.25 255 Z M 80.25 37.5 " clip-rule="nonzero"/></clipPath><clipPath id="id2"><path d="M 124 167.703125 L 153 167.703125 L 153 219.421875 L 124 219.421875 Z M 124 167.703125 " clip-rule="nonzero"/></clipPath><clipPath id="id3"><path d="M 167 93.585938 L 203 93.585938 L 203 158 L 167 158 Z M 167 93.585938 " clip-rule="nonzero"/></clipPath><clipPath id="id4"><path d="M 156 176 L 184 176 L 184 219.421875 L 156 219.421875 Z M 156 176 " clip-rule="nonzero"/></clipPath><clipPath id="id5"><path d="M 187.5 175 L 216 175 L 216 219.421875 L 187.5 219.421875 Z M 187.5 175 " clip-rule="nonzero"/></clipPath><clipPath id="id6"><path d="M 219 142 L 247 142 L 247 219.421875 L 219 219.421875 Z M 219 142 " clip-rule="nonzero"/></clipPath></defs><rect x="-37.5" width="450" fill="#ffffff" y="-37.499999" height="449.999989" fill-opacity="1"/><rect x="-37.5" width="450" fill="#000000" y="-37.499999" height="449.999989" fill-opacity="1"/><rect x="-37.5" width="450" fill="#ffffff" y="-37.499999" height="449.999989" fill-opacity="1"/><rect x="-37.5" width="450" fill="#000000" y="-37.499999" height="449.999989" fill-opacity="1"/><g clip-path="url(#id1)"><path fill="#a6a6a6" d="M 167.390625 39.21875 C 176.375 37.933594 185.171875 37.121094 194.121094 37.675781 C 200.917969 38.097656 207.667969 38.675781 214.296875 40.113281 C 219.285156 41.191406 224.214844 42.628906 229.011719 44.449219 C 236.722656 47.378906 244.039062 51.058594 250.878906 55.675781 C 257.097656 59.875 262.714844 64.777344 267.882812 70.234375 C 272.902344 75.535156 277.28125 81.328125 281.066406 87.546875 C 284.171875 92.644531 286.765625 98.011719 288.917969 103.628906 C 290.527344 107.824219 291.894531 112.066406 293.09375 116.378906 C 294.957031 123.101562 295.824219 129.992188 296.476562 136.910156 C 297.035156 142.769531 297.285156 148.648438 296.511719 154.515625 C 295.824219 159.746094 295.515625 165.003906 294.410156 170.207031 C 292.648438 178.519531 290.113281 186.558594 286.59375 194.234375 C 280.109375 208.371094 270.910156 220.488281 258.941406 230.464844 C 252.433594 235.894531 245.324219 240.386719 237.75 244.09375 C 228.828125 248.464844 219.347656 251.386719 209.597656 252.992188 C 201.785156 254.28125 193.871094 255.242188 185.867188 254.945312 C 180.941406 254.765625 176.085938 254.121094 171.207031 253.519531 C 165.105469 252.773438 159.15625 251.347656 153.304688 249.578125 C 148.488281 248.117188 143.78125 246.246094 139.242188 244.054688 C 133.527344 241.300781 128.136719 237.980469 123.003906 234.210938 C 115.964844 229.046875 109.785156 223.027344 104.28125 216.265625 C 98.828125 209.5625 94.460938 202.1875 90.730469 194.421875 C 87.558594 187.824219 85.15625 180.890625 83.539062 173.789062 C 81.152344 163.316406 79.761719 152.632812 80.410156 141.867188 C 80.828125 134.949219 81.535156 128.042969 83.019531 121.199219 C 84.449219 114.585938 86.347656 108.15625 88.859375 101.945312 C 92.523438 92.875 97.515625 84.503906 103.53125 76.777344 C 111.160156 66.988281 120.390625 58.992188 130.933594 52.554688 C 138.53125 47.917969 146.777344 44.640625 155.226562 41.960938 C 159.113281 40.726562 163.210938 40.144531 167.390625 39.21875 Z M 100.738281 111.632812 C 99.957031 113.738281 99.589844 115.945312 99.0625 118.113281 C 97.378906 124.976562 96.832031 131.960938 96.089844 138.945312 C 95.007812 149.09375 96.464844 159.085938 97.941406 169.039062 C 98.839844 175.097656 100.585938 181.019531 102.550781 186.875 C 104.648438 193.128906 107.339844 199.078125 110.425781 204.855469 C 113.171875 210 116.484375 214.796875 120.15625 219.328125 C 126.453125 227.101562 133.851562 233.621094 142.289062 238.957031 C 149.472656 243.5 157.253906 246.699219 165.398438 248.984375 C 168.652344 249.898438 171.988281 250.792969 175.335938 251.035156 C 182.96875 251.59375 190.597656 251.957031 198.292969 251.234375 C 208.117188 250.3125 217.425781 247.710938 226.269531 243.539062 C 233.570312 240.097656 240.25 235.601562 246.304688 230.183594 C 252.316406 224.800781 257.554688 218.742188 262.046875 212.074219 C 265.105469 207.539062 267.765625 202.734375 270.027344 197.714844 C 272.4375 192.363281 274.53125 186.886719 276.074219 181.25 C 278.21875 173.433594 279.492188 165.449219 280.3125 157.347656 C 281.371094 146.921875 280.710938 136.605469 279.351562 126.320312 C 278.464844 119.59375 276.871094 112.976562 274.667969 106.507812 C 272.140625 99.101562 269.066406 91.980469 265.152344 85.21875 C 260.972656 78.007812 255.96875 71.421875 250.070312 65.527344 C 244.324219 59.785156 237.96875 54.792969 230.828125 50.984375 C 222.613281 46.597656 213.964844 43.425781 204.679688 41.792969 C 195.234375 40.132812 185.898438 39.84375 176.4375 41.160156 C 169.777344 42.089844 163.214844 43.511719 156.984375 45.984375 C 150.5 48.550781 144.328125 51.777344 138.558594 55.828125 C 129.25 62.355469 121.476562 70.347656 115.078125 79.683594 C 110.046875 87.03125 106.054688 94.976562 103.179688 103.421875 C 102.304688 105.992188 100.992188 108.480469 100.738281 111.632812 Z M 100.738281 111.632812 " fill-opacity="1" fill-rule="nonzero"/></g><g clip-path="url(#id2)"><path fill="#ffffff" d="M 147.625 211.644531 C 147.625 213.277344 146.296875 214.605469 144.652344 214.605469 L 132.582031 214.605469 C 130.949219 214.605469 129.621094 213.277344 129.621094 211.644531 L 129.621094 193.179688 C 130.726562 192.550781 131.765625 191.761719 132.6875 190.839844 L 147.625 175.902344 Z M 150.730469 167.925781 C 149.875 167.636719 148.914062 167.863281 148.269531 168.507812 L 129.304688 187.457031 C 128.4375 188.339844 127.382812 189.050781 126.292969 189.511719 C 125.410156 189.890625 124.84375 190.746094 124.84375 191.707031 L 124.84375 211.644531 C 124.84375 215.910156 128.320312 219.382812 132.582031 219.382812 L 144.664062 219.382812 C 148.929688 219.382812 152.402344 215.910156 152.402344 211.644531 L 152.402344 170.953125 C 152.402344 170.597656 152.375 170.230469 152.324219 169.902344 C 152.21875 168.992188 151.597656 168.230469 150.730469 167.925781 " fill-opacity="1" fill-rule="nonzero"/></g><path fill="#ffffff" d="M 256.8125 115.328125 C 256.433594 123.105469 256.0625 130.867188 255.707031 138.660156 C 255.65625 139.882812 255.40625 140.027344 255.128906 140.171875 C 255.117188 140.1875 255.101562 140.1875 255.089844 140.199219 C 254.933594 140.054688 254.695312 139.816406 254.523438 139.644531 C 254.523438 139.644531 254.40625 139.542969 254.40625 139.527344 L 247.035156 132.222656 C 246.113281 131.304688 244.601562 131.304688 243.667969 132.238281 L 187.027344 188.878906 C 186.433594 189.445312 185.683594 189.761719 184.894531 189.761719 C 184.328125 189.761719 183.5 189.613281 182.789062 188.90625 L 152.257812 158.375 C 151.808594 157.925781 151.203125 157.675781 150.574219 157.675781 C 149.941406 157.675781 149.335938 157.925781 148.886719 158.375 L 124.59375 182.667969 C 124.003906 183.234375 123.253906 183.546875 122.460938 183.546875 C 121.898438 183.546875 121.066406 183.402344 120.355469 182.691406 L 119.027344 181.363281 C 118.476562 180.8125 118.160156 180.0625 118.160156 179.257812 C 118.160156 178.457031 118.476562 177.707031 119.027344 177.152344 L 148.441406 147.738281 C 149.03125 147.175781 149.78125 146.859375 150.574219 146.859375 C 151.136719 146.859375 151.96875 147.003906 152.679688 147.714844 L 183.210938 178.246094 C 184.144531 179.179688 185.65625 179.179688 186.59375 178.246094 L 238.152344 126.671875 C 238.613281 126.222656 238.863281 125.605469 238.863281 124.960938 C 238.851562 124.316406 238.585938 123.710938 238.125 123.261719 C 236.324219 121.511719 234.558594 119.734375 232.785156 117.945312 L 230.652344 115.8125 C 230.535156 115.695312 230.296875 115.445312 230.152344 115.273438 C 230.152344 115.273438 230.152344 115.273438 230.164062 115.261719 C 230.203125 115.167969 230.230469 115.128906 230.230469 115.117188 C 230.402344 115.050781 230.953125 115.023438 231.308594 114.996094 L 255.601562 113.851562 L 255.984375 113.851562 C 256.5 113.851562 256.734375 113.90625 256.734375 113.917969 C 256.773438 113.984375 256.855469 114.234375 256.839844 114.828125 Z M 260.210938 110.628906 C 259.210938 109.601562 257.789062 109.074219 255.984375 109.074219 L 231.085938 110.234375 C 229.703125 110.300781 227.136719 110.417969 225.835938 113.246094 C 224.386719 116.3125 226.402344 118.328125 227.269531 119.195312 L 229.375 121.3125 C 230.613281 122.550781 231.824219 123.789062 233.074219 125 L 184.894531 173.164062 L 156.058594 144.332031 C 154.601562 142.882812 152.652344 142.082031 150.574219 142.082031 C 148.53125 142.082031 146.597656 142.871094 145.085938 144.332031 L 115.644531 173.769531 C 114.183594 175.230469 113.382812 177.179688 113.382812 179.257812 C 113.382812 181.335938 114.183594 183.285156 115.644531 184.746094 L 116.976562 186.074219 C 118.4375 187.523438 120.382812 188.324219 122.460938 188.324219 C 124.503906 188.324219 126.4375 187.535156 127.949219 186.074219 L 150.574219 163.453125 L 179.40625 192.285156 C 180.867188 193.746094 182.816406 194.535156 184.894531 194.535156 C 186.933594 194.535156 188.867188 193.746094 190.382812 192.285156 L 245.363281 137.304688 L 251.128906 143.027344 C 251.917969 143.816406 253.128906 145.027344 255.039062 145.027344 C 255.800781 145.027344 256.589844 144.816406 257.378906 144.398438 C 260.328125 142.804688 260.460938 139.832031 260.484375 138.855469 C 260.839844 131.078125 261.210938 123.328125 261.578125 115.5625 L 261.605469 115.035156 C 261.683594 113.15625 261.210938 111.667969 260.210938 110.628906 " fill-opacity="1" fill-rule="nonzero"/><g clip-path="url(#id3)"><path fill="#ffffff" d="M 172.601562 143.003906 C 172.890625 141.898438 173.207031 140.777344 173.539062 139.644531 C 175.984375 140.832031 178.683594 141.59375 181.773438 141.988281 C 184.171875 142.253906 186.316406 141.960938 188.328125 141.09375 C 190.578125 140.105469 192.105469 138.171875 192.433594 135.921875 C 192.75 133.660156 191.804688 131.355469 189.867188 129.777344 C 188.882812 128.972656 187.710938 128.289062 186.300781 127.671875 C 185.421875 127.289062 184.539062 126.945312 183.65625 126.589844 C 181.734375 125.816406 179.917969 125.089844 178.261719 124.105469 C 174.300781 121.734375 172.5625 118.878906 172.800781 115.089844 C 173.078125 110.523438 175.523438 107.457031 180.367188 105.707031 C 183.421875 104.601562 184.078125 103.667969 184.078125 100.402344 L 184.066406 99.574219 C 184.066406 99.179688 184.066406 98.785156 184.066406 98.351562 L 185.367188 98.351562 C 185.816406 98.351562 186.289062 98.351562 186.671875 98.363281 C 186.683594 98.746094 186.683594 99.21875 186.683594 99.664062 C 186.683594 103.457031 187.550781 104.46875 191.34375 105.0625 C 192.882812 105.296875 194.449219 105.734375 196.09375 106.429688 L 195.84375 107.300781 C 195.59375 108.207031 195.332031 109.113281 195.054688 110.011719 C 192 108.679688 188.777344 108.101562 185.40625 108.285156 C 184.527344 108.351562 183.355469 108.484375 182.171875 108.984375 C 180.089844 109.890625 178.683594 111.65625 178.40625 113.695312 C 178.144531 115.722656 179.023438 117.761719 180.75 119.144531 C 182.289062 120.40625 183.984375 121.195312 185.316406 121.75 L 185.855469 121.972656 C 188.105469 122.894531 190.238281 123.761719 192.277344 124.894531 C 195.277344 126.550781 197.34375 129.34375 197.949219 132.539062 C 198.527344 135.566406 197.75 138.554688 195.777344 140.960938 C 194.226562 142.816406 192.222656 144.109375 189.777344 144.792969 C 187.433594 145.464844 186.195312 147.121094 186.300781 149.488281 C 186.34375 150.304688 186.328125 151.109375 186.316406 151.910156 C 186.316406 152.136719 186.316406 152.359375 186.300781 152.597656 C 185.367188 152.609375 184.445312 152.609375 183.484375 152.597656 C 183.484375 152.28125 183.484375 151.964844 183.472656 151.660156 C 183.472656 151.199219 183.460938 150.753906 183.460938 150.265625 C 183.421875 147.070312 182.5 146.003906 179.367188 145.488281 C 176.65625 145.082031 174.550781 144.476562 172.746094 143.609375 C 172.640625 143.554688 172.550781 143.515625 172.472656 143.476562 C 172.496094 143.34375 172.535156 143.199219 172.601562 143.003906 Z M 170.667969 147.910156 C 172.917969 148.988281 175.445312 149.726562 178.617188 150.214844 C 178.644531 150.214844 178.65625 150.214844 178.683594 150.226562 C 178.683594 150.253906 178.683594 150.28125 178.683594 150.292969 C 178.683594 150.78125 178.683594 151.253906 178.695312 151.726562 C 178.695312 152.1875 178.710938 152.636719 178.710938 153.097656 C 178.710938 155.597656 180.355469 157.308594 182.816406 157.359375 C 183.527344 157.371094 184.222656 157.386719 184.921875 157.386719 C 185.632812 157.386719 186.328125 157.371094 187.050781 157.359375 C 189.460938 157.308594 191.09375 155.636719 191.09375 153.214844 C 191.09375 152.804688 191.09375 152.398438 191.105469 151.976562 C 191.117188 151.121094 191.132812 150.265625 191.09375 149.386719 C 194.460938 148.4375 197.277344 146.632812 199.460938 144.015625 C 202.332031 140.542969 203.488281 136.027344 202.648438 131.644531 C 201.777344 127.050781 198.84375 123.066406 194.59375 120.707031 C 192.316406 119.445312 189.949219 118.484375 187.671875 117.539062 L 187.144531 117.328125 C 186.132812 116.90625 184.839844 116.3125 183.777344 115.433594 C 183.328125 115.078125 183.105469 114.683594 183.15625 114.328125 C 183.195312 113.957031 183.550781 113.601562 184.066406 113.378906 C 184.460938 113.207031 184.960938 113.117188 185.710938 113.0625 C 188.511719 112.90625 191.117188 113.417969 193.644531 114.617188 C 194.265625 114.917969 195.6875 115.617188 197.171875 114.996094 C 198.660156 114.378906 199.171875 112.851562 199.398438 112.167969 C 199.765625 110.984375 200.105469 109.8125 200.449219 108.613281 L 200.816406 107.339844 C 201.488281 105.140625 200.527344 103.128906 198.410156 102.21875 C 196.304688 101.285156 194.160156 100.652344 192.066406 100.335938 C 191.871094 100.3125 191.660156 100.269531 191.460938 100.246094 C 191.460938 100.046875 191.460938 99.851562 191.460938 99.652344 C 191.421875 94.652344 190.34375 93.574219 185.367188 93.574219 L 183.671875 93.574219 C 180.65625 93.679688 179.355469 95.007812 179.300781 97.957031 C 179.273438 98.535156 179.289062 99.085938 179.289062 99.640625 L 179.300781 100.402344 C 179.300781 100.585938 179.300781 100.8125 179.300781 101.007812 C 179.105469 101.074219 178.878906 101.167969 178.628906 101.246094 C 172.089844 103.628906 168.417969 108.3125 168.023438 114.800781 C 167.679688 120.40625 170.300781 124.921875 175.8125 128.222656 C 177.789062 129.394531 179.867188 130.222656 181.878906 131.027344 C 182.722656 131.367188 183.550781 131.699219 184.394531 132.066406 C 185.421875 132.511719 186.210938 132.972656 186.855469 133.488281 C 187.472656 134 187.789062 134.644531 187.699219 135.265625 C 187.605469 135.871094 187.15625 136.394531 186.421875 136.710938 C 185.195312 137.238281 183.855469 137.410156 182.339844 137.238281 C 179.539062 136.894531 177.15625 136.171875 175.039062 135.054688 C 174.351562 134.699219 172.933594 133.933594 171.417969 134.566406 C 169.890625 135.199219 169.417969 136.777344 169.195312 137.515625 C 168.746094 138.9375 168.363281 140.34375 167.96875 141.804688 C 167.089844 144.882812 167.8125 146.527344 170.667969 147.910156 " fill-opacity="1" fill-rule="nonzero"/></g><g clip-path="url(#id4)"><path fill="#ffffff" d="M 179.089844 211.671875 C 179.089844 213.304688 177.761719 214.632812 176.117188 214.632812 L 164.046875 214.632812 C 162.417969 214.632812 161.085938 213.304688 161.085938 211.671875 L 161.085938 183.613281 L 173.261719 195.789062 L 174.578125 197.117188 C 175.894531 198.417969 177.417969 199.457031 179.089844 200.183594 Z M 182.144531 196.207031 C 180.589844 195.761719 179.144531 194.90625 177.957031 193.734375 L 161.128906 176.890625 C 160.601562 176.375 159.863281 176.113281 159.140625 176.207031 C 158.402344 176.296875 157.757812 176.730469 157.375 177.363281 C 156.679688 178.535156 156.3125 179.902344 156.3125 181.285156 L 156.3125 211.671875 C 156.3125 215.933594 159.785156 219.421875 164.046875 219.421875 L 176.117188 219.421875 C 180.394531 219.421875 183.867188 215.933594 183.867188 211.671875 L 183.867188 198.511719 C 183.867188 197.445312 183.171875 196.511719 182.144531 196.207031 " fill-opacity="1" fill-rule="nonzero"/></g><g clip-path="url(#id5)"><path fill="#ffffff" d="M 210.554688 211.671875 C 210.554688 213.304688 209.226562 214.632812 207.59375 214.632812 L 195.527344 214.632812 C 193.894531 214.632812 192.554688 213.304688 192.554688 211.671875 L 192.554688 199.195312 C 193.5 198.605469 194.382812 197.90625 195.183594 197.101562 L 210.554688 181.730469 Z M 209.699219 175.835938 L 191.804688 193.734375 C 191.015625 194.511719 190.117188 195.140625 189.132812 195.617188 C 188.304688 196.011719 187.777344 196.851562 187.777344 197.773438 L 187.777344 211.671875 C 187.777344 215.933594 191.25 219.421875 195.527344 219.421875 L 207.59375 219.421875 C 211.859375 219.421875 215.347656 215.933594 215.347656 211.671875 L 215.347656 181.296875 C 215.347656 179.230469 214.542969 177.285156 213.082031 175.835938 C 212.148438 174.902344 210.636719 174.902344 209.699219 175.835938 " fill-opacity="1" fill-rule="nonzero"/></g><g clip-path="url(#id6)"><path fill="#ffffff" d="M 241.996094 211.605469 C 241.996094 213.25 240.667969 214.578125 239.023438 214.578125 L 226.96875 214.578125 C 225.320312 214.578125 223.992188 213.25 223.992188 211.605469 L 223.992188 168.269531 L 241.996094 150.265625 Z M 245.101562 142.292969 C 244.246094 141.988281 243.285156 142.210938 242.640625 142.871094 L 223.203125 162.292969 L 219.914062 165.585938 C 219.464844 166.03125 219.214844 166.652344 219.214844 167.28125 L 219.214844 211.605469 C 219.214844 215.882812 222.691406 219.355469 226.96875 219.355469 L 239.023438 219.355469 C 243.296875 219.355469 246.773438 215.882812 246.773438 211.605469 L 246.773438 145.265625 C 246.773438 144.9375 246.746094 144.59375 246.707031 144.253906 C 246.589844 143.34375 245.957031 142.59375 245.101562 142.292969 " fill-opacity="1" fill-rule="nonzero"/></g><g fill="#ffffff" fill-opacity="1"><g transform="translate(92.097655, 292.734298)"><g><path d="M 4.164062 0 L 7.699219 -8.875 L 16.285156 -8.875 L 16.917969 -7.324219 C 18.011719 -4.566406 18.269531 -1.980469 18.554688 0 L 20.28125 0 L 12.207031 -20.164062 L 8.761719 -20.164062 L 0.71875 0 Z M 12.007812 -19.621094 L 16.113281 -9.308594 L 7.871094 -9.308594 Z M 12.007812 -19.621094 "/></g></g></g><g fill="#ffffff" fill-opacity="1"><g transform="translate(113.093945, 292.734298)"><g><path d="M 8.417969 0 L 13.671875 -13.617188 L 18.988281 0 L 21.171875 0 L 27.605469 -16.601562 L 25.308594 -16.601562 C 25.59375 -14.21875 25.480469 -12.035156 24.617188 -9.882812 L 21.601562 -2.183594 L 16 -16.601562 L 14.449219 -16.601562 L 9.308594 -3.246094 L 4.109375 -16.601562 L 0.6875 -16.601562 L 7.09375 0 Z M 8.417969 0 "/></g></g></g><g fill="#ffffff" fill-opacity="1"><g transform="translate(141.701758, 292.734298)"><g><path d="M 10.109375 0.402344 C 12.4375 0.402344 14.878906 -0.375 17.035156 -2.066406 L 16.316406 -4.367188 C 14.074219 -1.4375 11.777344 -0.0273438 9.824219 -0.0273438 C 6.808594 -0.0273438 4.480469 -3.042969 4.367188 -8.1875 L 16.832031 -8.1875 C 17.003906 -8.90625 17.089844 -9.59375 17.089844 -10.226562 C 17.089844 -14.820312 13.472656 -17.089844 9.652344 -17.089844 C 5.429688 -17.089844 0.949219 -14.277344 0.949219 -8.675781 C 0.949219 -3.101562 5.226562 0.402344 10.109375 0.402344 Z M 4.367188 -8.617188 C 4.421875 -13.902344 7.179688 -16.632812 9.679688 -16.632812 C 11.890625 -16.632812 13.929688 -14.621094 13.929688 -10.425781 C 13.929688 -9.851562 13.875 -9.25 13.757812 -8.617188 Z M 4.367188 -8.617188 "/></g></g></g><g fill="#ffffff" fill-opacity="1"><g transform="translate(159.91195, 292.734298)"><g><path d="M 7.753906 0.488281 C 11.433594 0.488281 15.195312 -0.804688 15.28125 -4.195312 C 15.28125 -9.308594 3.621094 -11.546875 3.621094 -14.332031 C 3.621094 -15.769531 5.140625 -16.460938 7.179688 -16.460938 C 9.308594 -16.460938 12.351562 -15.453125 14.390625 -14.105469 L 14.765625 -16.402344 C 12.984375 -16.863281 11.03125 -17.089844 9.164062 -17.089844 C 5.027344 -17.089844 1.0625 -15.941406 1.0625 -13.097656 C 1.0625 -8.820312 12.953125 -6.664062 12.953125 -2.585938 C 12.867188 -1.207031 11.289062 -0.257812 9.019531 -0.257812 C 7.296875 -0.257812 4.738281 -0.777344 1.925781 -2.929688 L 1.351562 -0.632812 C 3.273438 0.0585938 5.574219 0.488281 7.753906 0.488281 Z M 7.753906 0.488281 "/></g></g></g><g fill="#ffffff" fill-opacity="1"><g transform="translate(176.082828, 292.734298)"><g><path d="M 9.25 0.488281 C 14.304688 0.488281 17.550781 -2.902344 17.550781 -8.242188 C 17.550781 -13.644531 14.304688 -17.089844 9.25 -17.089844 C 4.078125 -17.089844 0.949219 -13.644531 0.949219 -8.242188 C 0.949219 -2.902344 4.078125 0.488281 9.25 0.488281 Z M 9.25 0.0585938 C 5.859375 0.0585938 4.222656 -4.023438 4.222656 -8.242188 C 4.222656 -12.238281 5.859375 -16.660156 9.25 -16.660156 C 12.464844 -16.660156 14.277344 -12.238281 14.277344 -8.242188 C 14.277344 -4.023438 12.464844 0.0585938 9.25 0.0585938 Z M 9.25 0.0585938 "/></g></g></g><g fill="#ffffff" fill-opacity="1"><g transform="translate(194.55152, 292.734298)"><g><path d="M 4.882812 0 L 4.882812 -8.558594 C 5.515625 -13.097656 7.265625 -15.828125 9.363281 -15.828125 C 10.457031 -15.828125 11.605469 -14.820312 11.605469 -12.007812 L 11.605469 0 L 15.050781 0 L 15.050781 -9.105469 C 15.570312 -13.53125 17.378906 -15.710938 19.304688 -15.710938 C 20.367188 -15.710938 21.484375 -14.734375 21.484375 -12.007812 L 21.484375 0 L 24.933594 0 L 24.933594 -11.632812 C 24.933594 -15.222656 23.238281 -17.089844 20.625 -17.089844 C 18.296875 -17.089844 16.027344 -15.167969 15.082031 -11.175781 L 15.023438 -11.175781 C 15.023438 -14.910156 13.671875 -17.089844 10.886719 -17.089844 C 8.300781 -17.089844 5.859375 -14.5625 4.96875 -10.371094 L 4.882812 -10.371094 L 4.882812 -16.601562 L 1.4375 -16.601562 L 1.4375 0 Z M 4.882812 0 "/></g></g></g><g fill="#ffffff" fill-opacity="1"><g transform="translate(221.234906, 292.734298)"><g><path d="M 10.109375 0.402344 C 12.4375 0.402344 14.878906 -0.375 17.035156 -2.066406 L 16.316406 -4.367188 C 14.074219 -1.4375 11.777344 -0.0273438 9.824219 -0.0273438 C 6.808594 -0.0273438 4.480469 -3.042969 4.367188 -8.1875 L 16.832031 -8.1875 C 17.003906 -8.90625 17.089844 -9.59375 17.089844 -10.226562 C 17.089844 -14.820312 13.472656 -17.089844 9.652344 -17.089844 C 5.429688 -17.089844 0.949219 -14.277344 0.949219 -8.675781 C 0.949219 -3.101562 5.226562 0.402344 10.109375 0.402344 Z M 4.367188 -8.617188 C 4.421875 -13.902344 7.179688 -16.632812 9.679688 -16.632812 C 11.890625 -16.632812 13.929688 -14.621094 13.929688 -10.425781 C 13.929688 -9.851562 13.875 -9.25 13.757812 -8.617188 Z M 4.367188 -8.617188 "/></g></g></g><g fill="#ffffff" fill-opacity="1"><g transform="translate(239.445098, 292.734298)"><g/></g></g><g fill="#ffffff" fill-opacity="1"><g transform="translate(246.051314, 292.734298)"><g><path d="M 5.171875 0 L 5.171875 -8.730469 L 9.449219 -8.730469 C 13.355469 -8.820312 17.003906 -10.773438 17.003906 -14.476562 C 17.003906 -17.351562 14.996094 -20.164062 9.824219 -20.164062 L 1.722656 -20.164062 L 1.722656 0 Z M 5.171875 -19.734375 L 8.042969 -19.734375 C 12.152344 -19.734375 13.671875 -16.976562 13.671875 -14.476562 C 13.671875 -11.890625 12.09375 -9.164062 7.929688 -9.164062 L 5.171875 -9.164062 Z M 5.171875 -19.734375 "/></g></g></g><g fill="#ffffff" fill-opacity="1"><g transform="translate(264.146619, 292.734298)"><g><path d="M 5.171875 -11.144531 L 15.136719 -11.144531 L 15.136719 -11.578125 L 5.171875 -11.578125 L 5.171875 -19.734375 C 10.65625 -19.734375 13.84375 -19.246094 16.71875 -17.867188 L 16.71875 -20.164062 L 1.722656 -20.164062 L 1.722656 0 L 17.148438 0 L 17.148438 -2.296875 C 13.84375 -0.777344 10.597656 -0.429688 5.171875 -0.429688 Z M 5.171875 -11.144531 "/></g></g></g></svg>