<svg width="18" height="18" viewBox="0 0 18 18" fill="none" xmlns="http://www.w3.org/2000/svg">
<path fill-rule="evenodd" clip-rule="evenodd" d="M17.0848 14.9323C17.5298 10.6556 17.5298 6.34432 17.0848 2.06762C16.9261 0.542571 15.1678 -0.229943 13.9372 0.684777L9.83356 3.73519C8.58311 4.6647 7.06648 5.16665 5.5084 5.16665H1.6792C0.988844 5.16665 0.429199 5.72629 0.429199 6.41664V10.5833C0.429199 11.2737 0.988842 11.8333 1.6792 11.8333H2.30348L1.45812 14.9882C1.36392 15.3398 1.53573 15.7082 1.86559 15.8621L5.54674 17.5787C5.74766 17.6724 5.97974 17.6724 6.18067 17.5787C6.3816 17.485 6.53078 17.3072 6.58815 17.093L7.85085 12.3806C7.86426 12.3306 7.87228 12.2803 7.87526 12.2305C8.57273 12.4714 9.23377 12.8189 9.83356 13.2648L13.9372 16.3152C15.1677 17.2299 16.9261 16.4574 17.0848 14.9323ZM15.5928 2.22285C16.0271 6.39634 16.0271 10.6036 15.5928 14.7771C15.5545 15.1457 15.1295 15.3324 14.8321 15.1114L10.7284 12.0609C9.21926 10.9391 7.38884 10.3333 5.50839 10.3333L1.9292 10.3333L1.9292 6.66665H5.5084C7.38884 6.66665 9.21926 6.06085 10.7284 4.93902L14.8321 1.88861C15.1295 1.66752 15.5545 1.85424 15.5928 2.22285ZM6.43615 11.8929C6.12975 11.8534 5.8199 11.8333 5.50839 11.8333H3.85639L3.06989 14.7686L5.3706 15.8415L6.40196 11.9924C6.41118 11.958 6.42264 11.9248 6.43615 11.8929Z" fill="#413C69"/>
</svg>
