<svg width="16" height="21" viewBox="0 0 16 21" fill="none" xmlns="http://www.w3.org/2000/svg">
<path d="M8 20.3704C6.89605 20.3651 6.00092 19.4854 5.99 18.3951H9.99C9.99211 18.6592 9.94113 18.921 9.84 19.1655C9.57766 19.76 9.04181 20.1937 8.4 20.3309H8.395H8.38H8.362H8.353C8.23682 20.3548 8.11865 20.368 8 20.3704ZM16 17.4074H0V15.4321L2 14.4445V9.01237C1.94732 7.61891 2.26594 6.2362 2.924 5.00249C3.57904 3.85831 4.6987 3.04583 6 2.7704V0.61731H10V2.7704C12.579 3.37682 14 5.59311 14 9.01237V14.4445L16 15.4321V17.4074Z" fill="#182233"/>
</svg>
