<svg width="37" height="21" viewBox="0 0 37 21" fill="none" xmlns="http://www.w3.org/2000/svg">
<path fill-rule="evenodd" clip-rule="evenodd" d="M19.8897 0.954102C19.2794 0.954102 18.7847 1.44271 18.7847 2.04544C18.7847 2.64817 19.2794 3.13678 19.8897 3.13678H24.6008L27.8381 10.625C26.3754 11.6066 25.4146 13.2632 25.4146 15.1415C25.4146 18.1552 27.8881 20.5982 30.9395 20.5982C33.9908 20.5982 36.4644 18.1552 36.4644 15.1415C36.4644 12.1279 33.9908 9.68482 30.9395 9.68482C30.5339 9.68482 30.1385 9.72798 29.7577 9.80992L26.2538 1.70507C26.1004 1.35034 25.7622 1.11404 25.3818 1.08211C25.2269 1.00041 25.05 0.954102 24.8621 0.954102H19.8897ZM11.0498 20.5982C14.0289 20.5982 16.5074 18.4811 17.027 15.6872H19.8897C22.941 15.6872 25.4146 13.2441 25.4146 10.2305C25.4146 7.21684 22.941 4.77379 19.8897 4.77379H6.62023L5.23286 1.93682C4.96744 1.39408 4.3068 1.16661 3.75728 1.42875C3.20776 1.69089 2.97744 2.34337 3.24286 2.88611L4.16599 4.77379H1.10498C0.494717 4.77379 0 5.2624 0 5.86513V11.3218C0 13.7327 1.97887 15.6872 4.41992 15.6872H5.07262C5.59225 18.4811 8.0707 20.5982 11.0498 20.5982ZM19.8897 13.5045H17.027C16.5074 10.7105 14.0289 8.59348 11.0498 8.59348C8.0707 8.59348 5.59225 10.7105 5.07262 13.5045H4.41992C3.1994 13.5045 2.20996 12.5273 2.20996 11.3218V6.95647H19.8897C21.7205 6.95647 23.2046 8.4223 23.2046 10.2305C23.2046 12.0387 21.7205 13.5045 19.8897 13.5045ZM14.9172 14.596C14.9172 16.7055 13.1857 18.4157 11.0498 18.4157C8.91385 18.4157 7.18235 16.7055 7.18235 14.596C7.18235 12.4864 8.91385 10.7763 11.0498 10.7763C13.1857 10.7763 14.9172 12.4864 14.9172 14.596ZM30.9394 18.4157C32.7702 18.4157 34.2544 16.9499 34.2544 15.1417C34.2544 13.3335 32.7702 11.8677 30.9394 11.8677C29.1087 11.8677 27.6245 13.3335 27.6245 15.1417C27.6245 16.9499 29.1087 18.4157 30.9394 18.4157Z" fill="white"/>
</svg>
