<?xml version="1.0" encoding="utf-8"?>
<!-- Generator: Adobe Illustrator 25.4.1, SVG Export Plug-In . SVG Version: 6.00 Build 0)  -->
<svg version="1.1" id="Layer_1" xmlns="http://www.w3.org/2000/svg" xmlns:xlink="http://www.w3.org/1999/xlink" x="0px" y="0px"
	 viewBox="0 0 307 153.5" style="enable-background:new 0 0 307 153.5;" xml:space="preserve">
<style type="text/css">
	.st0{fill-rule:evenodd;clip-rule:evenodd;fill:#610094;}
	.st1{fill-rule:evenodd;clip-rule:evenodd;fill:#AD62AA;}
	.st2{fill-rule:evenodd;clip-rule:evenodd;fill:#03145E;}
	.st3{fill:#03145E;}
	.st4{fill:#192433;}
</style>
<path class="st0" d="M153.5,27.6V0C111.2,0,73,17.5,45.3,45.3l19.2,19.2C87.2,41.6,118.7,27.6,153.5,27.6z"/>
<path class="st1" d="M27.6,153.5H0C0,111.2,17.5,73,45.3,45.3l19.2,19.2C41.6,87.2,27.6,118.7,27.6,153.5z"/>
<path class="st2" d="M279.4,153.5H307c0-42.3-17.5-80.5-45.3-108.2l-19.2,19.2C265.4,87.2,279.4,118.7,279.4,153.5z"/>
<path class="st0" d="M153.5,27.6V0c42.3,0,80.5,17.5,108.2,45.3l-19.2,19.2C219.8,41.6,188.3,27.6,153.5,27.6z"/>
<path class="st3" d="M91.5,134.8c0,1.8-0.6,3.4-1.9,4.7c-1.2,1.3-2.8,2.1-4.8,2.6v2.2c0,0.6-0.2,1.1-0.6,1.5
	c-0.4,0.4-0.9,0.6-1.5,0.6c-0.6,0-1.1-0.2-1.5-0.6c-0.4-0.4-0.6-0.9-0.6-1.5v-2c-1.3-0.1-2.5-0.4-3.6-0.8c-1.1-0.4-2.1-1.1-3.1-1.9
	c-0.6-0.6-1-1.2-1-1.9c0-0.6,0.2-1,0.6-1.4c0.4-0.4,0.9-0.6,1.5-0.6c0.5,0,0.9,0.1,1.2,0.4c0.7,0.6,1.5,1.1,2.1,1.4
	c0.7,0.3,1.4,0.6,2.2,0.7v-7c-4.8-0.9-7.2-3.3-7.2-7.2c0-2,0.7-3.6,2-4.9c1.3-1.3,3.1-2.1,5.2-2.4v-1.2c0-0.6,0.2-1.1,0.6-1.5
	c0.4-0.4,1-0.6,1.6-0.6c0.6,0,1.1,0.2,1.5,0.6c0.4,0.4,0.6,0.9,0.6,1.5v1.3c2,0.4,3.7,1.1,5,2.2c0.7,0.6,1,1.2,1,1.9
	c0,0.6-0.2,1-0.6,1.5c-0.4,0.4-0.9,0.6-1.4,0.6c-0.4,0-0.7-0.1-1-0.3c-0.7-0.6-1.7-1.1-3.1-1.5v6.7c2.3,0.6,4,1.4,5.1,2.4
	C91,131.2,91.5,132.7,91.5,134.8z M77.6,123.6c0,0.8,0.3,1.4,0.8,1.9c0.5,0.5,1.2,0.9,2.2,1.2v-6c-1,0.2-1.7,0.5-2.2,1
	C77.8,122.3,77.6,122.9,77.6,123.6z M84.9,137.7c0.7-0.3,1.3-0.7,1.7-1.1c0.4-0.5,0.6-1,0.6-1.5c0-0.7-0.2-1.2-0.6-1.7
	c-0.4-0.5-1-0.9-1.8-1.3V137.7z M109.9,138c0.6,0,1.1,0.2,1.4,0.6s0.6,0.9,0.6,1.4c0,0.6-0.2,1-0.6,1.4c-0.4,0.4-0.9,0.5-1.4,0.5
	H97.6c-0.6,0-1.1-0.2-1.5-0.6s-0.5-0.9-0.5-1.5s0.2-1.1,0.6-1.6l7.8-8.4c0.9-1,1.6-1.9,2.1-2.9c0.5-1,0.8-1.9,0.8-2.7
	c0-1.1-0.4-2-1.2-2.8s-1.7-1.2-2.7-1.2c-0.7,0-1.4,0.2-2.1,0.7c-0.7,0.5-1.3,1.1-1.9,1.8c-0.4,0.6-1,0.9-1.7,0.9
	c-0.5,0-1-0.2-1.5-0.6c-0.4-0.4-0.6-0.9-0.6-1.4c0-0.4,0.1-0.7,0.4-1.1c0.2-0.4,0.6-0.8,1.1-1.3c0.9-0.9,2-1.6,3.2-2.2
	c1.2-0.6,2.4-0.8,3.5-0.8c1.6,0,3,0.3,4.2,1c1.2,0.7,2.1,1.6,2.8,2.8c0.6,1.2,1,2.5,1,4c0,1.5-0.4,3-1.2,4.5c-0.8,1.5-1.8,3-3.1,4.4
	l-4.6,4.9H109.9z M129.9,138c0.6,0,1.1,0.2,1.4,0.6s0.6,0.9,0.6,1.4c0,0.6-0.2,1-0.6,1.4c-0.4,0.4-0.9,0.5-1.4,0.5h-12.2
	c-0.6,0-1.1-0.2-1.5-0.6s-0.5-0.9-0.5-1.5s0.2-1.1,0.6-1.6l7.8-8.4c0.9-1,1.6-1.9,2.1-2.9c0.5-1,0.8-1.9,0.8-2.7
	c0-1.1-0.4-2-1.2-2.8c-0.8-0.8-1.7-1.2-2.7-1.2c-0.7,0-1.4,0.2-2.1,0.7c-0.7,0.5-1.3,1.1-1.9,1.8c-0.4,0.6-1,0.9-1.7,0.9
	c-0.5,0-1-0.2-1.5-0.6c-0.4-0.4-0.6-0.9-0.6-1.4c0-0.4,0.1-0.7,0.4-1.1c0.2-0.4,0.6-0.8,1.1-1.3c0.9-0.9,2-1.6,3.2-2.2
	c1.2-0.6,2.4-0.8,3.5-0.8c1.6,0,3,0.3,4.2,1c1.2,0.7,2.1,1.6,2.8,2.8c0.6,1.2,1,2.5,1,4c0,1.5-0.4,3-1.2,4.5c-0.8,1.5-1.8,3-3.1,4.4
	l-4.6,4.9H129.9z M143.6,125.1c1.6,0,3,0.4,4.3,1.1c1.3,0.7,2.3,1.7,3,3c0.7,1.3,1.1,2.7,1.1,4.2c0,1.6-0.5,3.1-1.4,4.5
	s-2.1,2.5-3.6,3.3c-1.5,0.8-3.1,1.2-4.9,1.2c-0.9,0-1.9-0.1-2.9-0.4c-1-0.3-1.8-0.7-2.4-1.2c-0.3-0.2-0.5-0.6-0.7-1
	c-0.2-0.4-0.3-0.8-0.3-1.2c0-0.4,0.2-0.8,0.5-1.2c0.4-0.4,0.9-0.5,1.5-0.5c0.4,0,1,0.2,1.6,0.7c1,0.6,1.9,0.9,2.7,0.9
	c1,0,1.9-0.2,2.8-0.7s1.5-1.1,2.1-1.8c0.5-0.8,0.8-1.6,0.8-2.5c0-1.3-0.4-2.4-1.3-3.2c-0.9-0.8-1.9-1.2-3.2-1.2
	c-0.6,0-1,0.1-1.5,0.2c-0.4,0.1-0.9,0.4-1.5,0.6c-0.4,0.2-0.8,0.4-1,0.5c-0.2,0.1-0.5,0.1-0.8,0.1c-0.9,0-1.6-0.3-2-0.8
	c-0.4-0.5-0.6-1.1-0.6-1.8c0-0.2,0-0.4,0-0.5l1.1-8.9c0.1-0.5,0.3-0.9,0.7-1.2c0.4-0.3,0.9-0.5,1.4-0.5h10.4c0.6,0,1.1,0.2,1.4,0.6
	s0.6,0.9,0.6,1.4c0,0.6-0.2,1-0.6,1.4c-0.4,0.4-0.9,0.5-1.4,0.5h-8.9l-0.7,5.2c0.5-0.3,1-0.5,1.7-0.6S143,125.1,143.6,125.1z
	 M163.1,141.7c0,0.6-0.2,1.2-0.6,2.1c-0.4,0.8-0.9,1.6-1.6,2.2c-0.6,0.6-1.3,0.9-2,0.9c-0.5,0-0.9-0.1-1.3-0.4
	c-0.3-0.2-0.5-0.6-0.5-1.1c0-0.4,0.1-0.7,0.3-0.8c0.2-0.1,0.4-0.3,0.6-0.3c0.2-0.1,0.4-0.1,0.5-0.2c0.7-0.4,1-0.8,1-1.4
	c0-0.3-0.1-0.5-0.4-0.7c-0.2-0.2-0.6-0.3-1-0.3s-0.7,0.1-1,0.3c-0.3-0.1-0.5-0.3-0.7-0.5c-0.1-0.2-0.2-0.5-0.2-0.9
	c0-0.5,0.2-0.9,0.5-1.3c0.4-0.4,0.8-0.8,1.3-1c0.5-0.3,1-0.4,1.5-0.4c1.1,0,1.9,0.3,2.5,1C162.8,139.5,163.1,140.5,163.1,141.7z
	 M182.6,116.8c0.6,0,1.2,0.2,1.6,0.6c0.5,0.4,0.7,0.9,0.7,1.5c0,0.3-0.1,0.6-0.2,1l-9.5,20.9c-0.2,0.4-0.4,0.8-0.8,1
	c-0.4,0.2-0.8,0.4-1.2,0.4c-0.6,0-1.1-0.2-1.6-0.6c-0.4-0.4-0.6-0.9-0.6-1.5c0-0.3,0.1-0.7,0.2-1l8.4-18.4h-9.6
	c-0.6,0-1.1-0.2-1.4-0.6s-0.6-0.9-0.6-1.4c0-0.6,0.2-1,0.6-1.4c0.4-0.4,0.9-0.6,1.4-0.6H182.6z M203.3,138c0.6,0,1.1,0.2,1.4,0.6
	c0.4,0.4,0.6,0.9,0.6,1.4c0,0.6-0.2,1-0.6,1.4c-0.4,0.4-0.9,0.5-1.4,0.5h-12.2c-0.6,0-1.1-0.2-1.5-0.6s-0.5-0.9-0.5-1.5
	s0.2-1.1,0.6-1.6l7.8-8.4c0.9-1,1.6-1.9,2.1-2.9c0.5-1,0.8-1.9,0.8-2.7c0-1.1-0.4-2-1.2-2.8c-0.8-0.8-1.7-1.2-2.7-1.2
	c-0.7,0-1.4,0.2-2.1,0.7c-0.7,0.5-1.3,1.1-1.9,1.8c-0.4,0.6-1,0.9-1.7,0.9c-0.5,0-1-0.2-1.5-0.6c-0.4-0.4-0.6-0.9-0.6-1.4
	c0-0.4,0.1-0.7,0.4-1.1c0.2-0.4,0.6-0.8,1.1-1.3c0.9-0.9,2-1.6,3.2-2.2c1.2-0.6,2.4-0.8,3.5-0.8c1.6,0,3,0.3,4.2,1s2.1,1.6,2.8,2.8
	c0.6,1.2,1,2.5,1,4c0,1.5-0.4,3-1.2,4.5c-0.8,1.5-1.8,3-3.1,4.4l-4.6,4.9H203.3z M223.9,116.8c0.6,0,1.2,0.2,1.6,0.6
	c0.5,0.4,0.7,0.9,0.7,1.5c0,0.3-0.1,0.6-0.2,1l-9.5,20.9c-0.2,0.4-0.4,0.8-0.8,1c-0.4,0.2-0.8,0.4-1.2,0.4c-0.6,0-1.1-0.2-1.6-0.6
	c-0.4-0.4-0.6-0.9-0.6-1.5c0-0.3,0.1-0.7,0.2-1l8.4-18.4h-9.6c-0.6,0-1.1-0.2-1.4-0.6s-0.6-0.9-0.6-1.4c0-0.6,0.2-1,0.6-1.4
	c0.4-0.4,0.9-0.6,1.4-0.6H223.9z"/>
<path class="st4" d="M144.1,96.5c0.2,0,0.4,0.1,0.5,0.2c0.1,0.1,0.2,0.3,0.2,0.5s-0.1,0.4-0.2,0.5c-0.1,0.1-0.3,0.2-0.5,0.2h-2.7
	v8.4c0,0.2-0.1,0.4-0.2,0.5c-0.1,0.1-0.3,0.2-0.5,0.2s-0.4-0.1-0.6-0.2c-0.1-0.1-0.2-0.3-0.2-0.5v-8.4h-2.7c-0.2,0-0.4-0.1-0.5-0.2
	c-0.1-0.1-0.2-0.3-0.2-0.5c0-0.2,0.1-0.4,0.2-0.5c0.1-0.1,0.3-0.2,0.5-0.2H144.1z M152,103.1c0,0.8-0.2,1.5-0.5,2.1
	c-0.4,0.6-0.8,1.1-1.4,1.5c-0.6,0.3-1.3,0.5-2,0.5c-0.7,0-1.4-0.2-2-0.5c-0.6-0.3-1.1-0.8-1.4-1.5c-0.3-0.6-0.5-1.3-0.5-2.1
	s0.2-1.5,0.5-2.1c0.4-0.6,0.8-1.1,1.4-1.5c0.6-0.3,1.3-0.5,2-0.5c0.7,0,1.4,0.2,2,0.5c0.6,0.3,1.1,0.8,1.4,1.5
	C151.8,101.6,152,102.3,152,103.1z M150.5,103.1c0-0.5-0.1-1-0.3-1.4c-0.2-0.4-0.5-0.8-0.9-1c-0.4-0.2-0.8-0.4-1.3-0.4
	c-0.5,0-0.9,0.1-1.3,0.4c-0.4,0.2-0.7,0.6-0.9,1c-0.2,0.4-0.3,0.9-0.3,1.4c0,0.5,0.1,1,0.3,1.4c0.2,0.4,0.5,0.8,0.9,1
	c0.4,0.2,0.8,0.3,1.3,0.3c0.5,0,0.9-0.1,1.3-0.3c0.4-0.2,0.7-0.6,0.9-1C150.4,104.1,150.5,103.6,150.5,103.1z M155.7,100.5v4.5
	c0,0.5,0.2,0.8,0.7,0.8c0.1,0,0.2,0,0.3,0c0.1,0,0.2-0.1,0.3-0.1c0.1,0,0.2,0.1,0.3,0.2s0.1,0.2,0.1,0.4c0,0.2-0.1,0.4-0.4,0.5
	c-0.2,0.2-0.5,0.2-0.8,0.2c-0.3,0-0.6,0-0.9-0.1c-0.3-0.1-0.5-0.2-0.7-0.5c-0.2-0.3-0.3-0.7-0.3-1.3v-4.5h-0.9
	c-0.2,0-0.4-0.1-0.5-0.2c-0.1-0.1-0.2-0.3-0.2-0.5s0.1-0.3,0.2-0.5c0.1-0.1,0.3-0.2,0.5-0.2h0.9V98c0-0.2,0.1-0.4,0.2-0.5
	c0.1-0.1,0.3-0.2,0.5-0.2c0.2,0,0.4,0.1,0.5,0.2c0.1,0.1,0.2,0.3,0.2,0.5v1.3h1.2c0.2,0,0.3,0.1,0.5,0.2c0.1,0.1,0.2,0.3,0.2,0.5
	s-0.1,0.3-0.2,0.5c-0.1,0.1-0.3,0.2-0.5,0.2H155.7z M165.7,99c0.2,0,0.4,0.1,0.5,0.2c0.1,0.1,0.2,0.3,0.2,0.5v6.5
	c0,0.2-0.1,0.4-0.2,0.5c-0.1,0.1-0.3,0.2-0.5,0.2c-0.2,0-0.4-0.1-0.5-0.2c-0.1-0.1-0.2-0.3-0.2-0.5v-0.4c-0.3,0.3-0.6,0.7-1.1,0.9
	c-0.5,0.2-0.9,0.4-1.5,0.4c-0.7,0-1.3-0.2-1.9-0.5c-0.6-0.3-1-0.8-1.3-1.5c-0.3-0.6-0.5-1.3-0.5-2.1s0.2-1.5,0.5-2.1
	c0.3-0.6,0.8-1.1,1.3-1.5s1.2-0.5,1.8-0.5c0.5,0,1,0.1,1.5,0.3c0.5,0.2,0.8,0.5,1.1,0.8v-0.4c0-0.2,0.1-0.4,0.2-0.5
	S165.5,99,165.7,99z M162.6,105.8c0.5,0,0.9-0.1,1.2-0.4c0.4-0.2,0.7-0.6,0.9-1c0.2-0.4,0.3-0.9,0.3-1.4c0-0.5-0.1-1-0.3-1.4
	c-0.2-0.4-0.5-0.8-0.9-1c-0.4-0.2-0.8-0.4-1.2-0.4s-0.9,0.1-1.3,0.4c-0.4,0.2-0.6,0.6-0.9,1c-0.2,0.4-0.3,0.9-0.3,1.4s0.1,1,0.3,1.4
	c0.2,0.4,0.5,0.8,0.9,1C161.7,105.7,162.2,105.8,162.6,105.8z M170.1,106.3c0,0.2-0.1,0.4-0.2,0.5s-0.3,0.2-0.5,0.2
	s-0.4-0.1-0.5-0.2c-0.1-0.1-0.2-0.3-0.2-0.5v-9.7c0-0.2,0.1-0.4,0.2-0.5s0.3-0.2,0.5-0.2c0.2,0,0.4,0.1,0.5,0.2
	c0.1,0.1,0.2,0.3,0.2,0.5V106.3z"/>
</svg>
