<svg width="20" height="20" viewBox="0 0 20 20" fill="none" xmlns="http://www.w3.org/2000/svg">
    <path d="M13.3008 14.7L9.00078 10.4V5.00005H11.0008V9.60005L14.7008 13.3L13.3008 14.7ZM0.850781 14.075C0.634115 13.5917 0.459115 13.0917 0.325781 12.575C0.192448 12.0584 0.100781 11.5334 0.0507812 11H2.07578C2.12578 11.35 2.19661 11.7 2.28828 12.05C2.37995 12.4 2.49245 12.7417 2.62578 13.075L0.850781 14.075ZM0.0507812 9.00005C0.100781 8.46671 0.192448 7.93755 0.325781 7.41255C0.459115 6.88755 0.642448 6.38338 0.875781 5.90005L2.62578 6.90005C2.49245 7.23338 2.37995 7.57505 2.28828 7.92505C2.19661 8.27505 2.12578 8.63338 2.07578 9.00005H0.0507812ZM4.17578 18.15C3.72578 17.8167 3.30911 17.4542 2.92578 17.0625C2.54245 16.6709 2.18411 16.25 1.85078 15.8L3.60078 14.8C3.83411 15.1 4.07995 15.3792 4.33828 15.6375C4.59661 15.8959 4.87578 16.1417 5.17578 16.375L4.17578 18.15ZM3.62578 5.17505L1.85078 4.17505C2.18411 3.72505 2.54245 3.30838 2.92578 2.92505C3.30911 2.54172 3.72578 2.18338 4.17578 1.85005L5.17578 3.62505C4.89245 3.85838 4.62161 4.10422 4.36328 4.36255C4.10495 4.62088 3.85911 4.89172 3.62578 5.17505ZM9.00078 19.95C8.46745 19.9 7.93828 19.8084 7.41328 19.675C6.88828 19.5417 6.38411 19.3584 5.90078 19.125L6.90078 17.375C7.23411 17.5084 7.57578 17.6209 7.92578 17.7125C8.27578 17.8042 8.63411 17.875 9.00078 17.925V19.95ZM6.90078 2.62505L5.90078 0.875049C6.38411 0.641715 6.88828 0.458382 7.41328 0.325049C7.93828 0.191715 8.46745 0.100049 9.00078 0.0500488V2.07505C8.63411 2.12505 8.27578 2.19588 7.92578 2.28755C7.57578 2.37922 7.23411 2.49172 6.90078 2.62505ZM11.0008 19.95V17.925C11.3674 17.875 11.7258 17.8042 12.0758 17.7125C12.4258 17.6209 12.7674 17.5084 13.1008 17.375L14.1008 19.125C13.6174 19.3584 13.1133 19.5417 12.5883 19.675C12.0633 19.8084 11.5341 19.9 11.0008 19.95ZM13.1008 2.62505C12.7674 2.49172 12.4258 2.37922 12.0758 2.28755C11.7258 2.19588 11.3674 2.12505 11.0008 2.07505V0.0500488C11.5341 0.100049 12.0633 0.191715 12.5883 0.325049C13.1133 0.458382 13.6174 0.641715 14.1008 0.875049L13.1008 2.62505ZM15.8258 18.15L14.8258 16.375C15.1091 16.1417 15.3799 15.8959 15.6383 15.6375C15.8966 15.3792 16.1424 15.1084 16.3758 14.825L18.1508 15.825C17.8174 16.275 17.4591 16.6959 17.0758 17.0875C16.6924 17.4792 16.2758 17.8334 15.8258 18.15ZM16.3758 5.17505C16.1424 4.89172 15.8966 4.62088 15.6383 4.36255C15.3799 4.10422 15.1091 3.85838 14.8258 3.62505L15.8258 1.85005C16.2758 2.16672 16.6924 2.51672 17.0758 2.90005C17.4591 3.28338 17.8091 3.70005 18.1258 4.15005L16.3758 5.17505ZM17.9258 9.00005C17.8758 8.63338 17.8049 8.27505 17.7133 7.92505C17.6216 7.57505 17.5091 7.23338 17.3758 6.90005L19.1258 5.87505C19.3424 6.37505 19.5216 6.88755 19.6633 7.41255C19.8049 7.93755 19.9008 8.46671 19.9508 9.00005H17.9258ZM19.1258 14.1L17.3758 13.1C17.5091 12.7667 17.6216 12.425 17.7133 12.075C17.8049 11.725 17.8758 11.3667 17.9258 11H19.9508C19.9008 11.5334 19.8091 12.0625 19.6758 12.5875C19.5424 13.1125 19.3591 13.6167 19.1258 14.1Z" fill="#607D8B"/>
</svg>
