<svg width="18" height="18" viewBox="0 0 18 18" fill="none" xmlns="http://www.w3.org/2000/svg">
<path d="M8.16675 4.83334H9.83342V6.50001H8.16675V4.83334ZM8.16675 8.16667H9.83342V13.1667H8.16675V8.16667ZM9.00008 0.666672C4.40008 0.666672 0.666748 4.40001 0.666748 9.00001C0.666748 13.6 4.40008 17.3333 9.00008 17.3333C13.6001 17.3333 17.3334 13.6 17.3334 9.00001C17.3334 4.40001 13.6001 0.666672 9.00008 0.666672ZM9.00008 15.6667C5.32508 15.6667 2.33341 12.675 2.33341 9.00001C2.33341 5.32501 5.32508 2.33334 9.00008 2.33334C12.6751 2.33334 15.6667 5.32501 15.6667 9.00001C15.6667 12.675 12.6751 15.6667 9.00008 15.6667Z" fill="white"/>
</svg>
