<svg width="18" height="18" viewBox="0 0 18 18" fill="none" xmlns="http://www.w3.org/2000/svg">
<path d="M8.16675 4.83329H9.83342V6.49996H8.16675V4.83329ZM8.16675 8.16663H9.83342V13.1666H8.16675V8.16663ZM9.00008 0.666626C4.40008 0.666626 0.666748 4.39996 0.666748 8.99996C0.666748 13.6 4.40008 17.3333 9.00008 17.3333C13.6001 17.3333 17.3334 13.6 17.3334 8.99996C17.3334 4.39996 13.6001 0.666626 9.00008 0.666626ZM9.00008 15.6666C5.32508 15.6666 2.33341 12.675 2.33341 8.99996C2.33341 5.32496 5.32508 2.33329 9.00008 2.33329C12.6751 2.33329 15.6667 5.32496 15.6667 8.99996C15.6667 12.675 12.6751 15.6666 9.00008 15.6666Z" fill="#413C69"/>
</svg>
