<?xml version="1.0" encoding="utf-8"?>
<!-- Generator: Adobe Illustrator 24.2.1, SVG Export Plug-In . SVG Version: 6.00 Build 0)  -->
<svg version="1.1" id="Layer_1" xmlns="http://www.w3.org/2000/svg" xmlns:xlink="http://www.w3.org/1999/xlink" x="0px" y="0px"
	 viewBox="0 0 350 109.72" style="enable-background:new 0 0 350 109.72;" xml:space="preserve">
<style type="text/css">
	.st0{fill:#1D2B5B;}
	.st1{font-family:'Flama-Book';}
	.st2{font-size:18.2019px;}
</style>
<g>
	<path class="st0" d="M15.07,34.64c2.21-6.09,5.13-10.85,8.74-14.27c3.62-3.43,7.47-5.14,11.56-5.14c1.95,0,4.04,0.5,6.28,1.5
		c2.24-1,4.31-1.5,6.21-1.5c0.95,0,2.05,0.15,3.28,0.46c1.24,0.31,2.24,0.68,3,1.11c2.24-1.05,4.33-1.57,6.28-1.57
		c4.14,0,8.02,1.74,11.63,5.21c3.62,3.47,6.52,8.24,8.71,14.31c2.19,6.07,3.28,12.81,3.28,20.23c0,7.33-1.08,14.04-3.25,20.13
		C78.64,81.2,75.75,86,72.13,89.49c-3.62,3.5-7.52,5.25-11.71,5.25c-0.86,0-1.87-0.13-3.03-0.39c-1.17-0.26-2.25-0.63-3.25-1.11
		c-2.24,1-4.31,1.5-6.21,1.5c-0.86,0-1.88-0.14-3.07-0.43c-1.19-0.29-2.26-0.64-3.21-1.07c-2.33,1-4.43,1.5-6.28,1.5
		c-4.24,0-8.16-1.78-11.78-5.35c-3.62-3.57-6.5-8.4-8.64-14.49c-2.14-6.09-3.21-12.73-3.21-19.91
		C11.75,47.51,12.85,40.73,15.07,34.64z M23.03,78.5c2.95,6.92,7.07,12.29,12.35,16.1c5.38-3.85,9.53-9.26,12.45-16.2
		c2.93-6.95,4.39-14.75,4.39-23.41c0-7.33-1.05-13.99-3.14-19.98c1.05-2.95,2.16-5.47,3.35-7.57c2.19,3.9,3.83,8.2,4.93,12.88
		C58.45,45,59,49.89,59,54.98c0,5.52-0.64,10.84-1.93,15.95c-1.28,5.12-3.24,9.62-5.85,13.53c0.52,0.95,1.12,1.86,1.78,2.71
		c-1.05,1.38-2.02,2.54-2.93,3.5c-0.71-0.57-1.43-1.26-2.14-2.07c-1.19,1.28-2.38,2.31-3.57,3.07c0.52,0.52,1.14,1.07,1.86,1.64
		c0.71,0.57,1.28,1,1.71,1.29c5.33-3.81,9.46-9.17,12.38-16.1c2.93-6.92,4.39-14.76,4.39-23.52c0-6.23-0.77-12.11-2.32-17.63
		c-1.55-5.52-3.89-10.37-7.03-14.56c0.71-1,1.67-2.14,2.85-3.43c4.33,3.52,7.64,8.51,9.92,14.95c2.28,6.45,3.43,13.34,3.43,20.66
		c0,7.85-1.28,15.12-3.85,21.81c-2.57,6.69-6.19,11.65-10.85,14.88c1.19,1.09,2.38,2.07,3.57,2.93c5.47-3.95,9.64-9.41,12.49-16.38
		S77.2,63.5,77.2,54.98c0-8.8-1.5-16.69-4.5-23.66c-3-6.97-7.09-12.29-12.28-15.95c-5.19,3.71-9.28,9.04-12.28,15.99
		c-3,6.95-4.5,14.82-4.5,23.63c0,7.23,1.02,13.89,3.07,19.99c-0.81,2.47-1.9,5-3.28,7.57c-2.24-3.81-3.9-8.08-5-12.81
		c-1.1-4.73-1.64-9.65-1.64-14.74c0-5.57,0.65-10.9,1.96-15.99c1.31-5.09,3.27-9.59,5.89-13.49c-0.14-0.33-0.76-1.24-1.86-2.71
		c1.09-1.43,2.07-2.57,2.93-3.43c0.52,0.38,1.26,1.05,2.21,2c0.57-0.57,1.19-1.15,1.86-1.75c0.67-0.59,1.21-1.03,1.64-1.32
		c-1-1-2.19-1.97-3.57-2.93c-5.09,3.62-9.16,8.87-12.21,15.77c-3.05,6.9-4.57,14.85-4.57,23.84c0,6.09,0.79,11.93,2.36,17.52
		c1.57,5.59,3.9,10.48,6.99,14.67c-0.57,0.81-1.52,1.97-2.85,3.5c-4.33-3.52-7.64-8.53-9.92-15.02c-2.28-6.5-3.43-13.38-3.43-20.66
		c0-7.99,1.31-15.31,3.93-21.95c2.62-6.64,6.21-11.55,10.78-14.74c-1.19-1.09-2.38-2.07-3.57-2.93c-5.47,4.09-9.64,9.56-12.49,16.42
		c-2.85,6.85-4.28,14.58-4.28,23.2C18.6,63.74,20.07,71.58,23.03,78.5z"/>
	<path class="st0" d="M116.31,71.76c0,1.57,0.17,2.69,0.5,3.35c0.33,0.67,1.03,1.12,2.11,1.36c1.07,0.24,2.82,0.36,5.25,0.36
		c3.09,0,5.48-0.37,7.17-1.11c1.69-0.74,2.99-2.01,3.89-3.82c0.9-1.81,1.64-4.52,2.21-8.14h2.43l-0.57,15.99h-38.47v-2.43l6.57-1.78
		V34.07l-6.57-1.79v-2.5h23.2v2.43l-7.71,1.86V71.76z"/>
	<path class="st0" d="M172.91,72.11c0,1.48,0.11,2.47,0.32,3c0.21,0.52,0.61,0.79,1.18,0.79c0.48,0,0.94-0.15,1.39-0.46
		c0.45-0.31,1.01-0.84,1.68-1.61l1.57,1.71c-1.43,1.71-2.83,2.97-4.21,3.78s-2.86,1.21-4.42,1.21c-1.43,0-2.56-0.38-3.39-1.14
		c-0.83-0.76-1.46-1.95-1.89-3.57c-2.43,3.14-5.97,4.71-10.63,4.71c-3.38,0-6.03-0.84-7.96-2.53c-1.93-1.69-2.89-3.98-2.89-6.89
		c0-2.09,0.36-3.76,1.07-5c0.71-1.24,1.83-2.28,3.36-3.14c1.52-0.86,3.76-1.76,6.71-2.71l9.85-3.21V54.2c0-2.81-0.44-4.87-1.32-6.17
		c-0.88-1.31-2.27-1.96-4.18-1.96c-2.19,0-3.93,0.76-5.21,2.28c-1.28,1.52-1.93,3.55-1.93,6.07v0.36c-0.71,0.43-1.64,0.64-2.78,0.64
		c-1.33,0-2.37-0.33-3.1-1c-0.74-0.67-1.11-1.57-1.11-2.71c0-1.57,0.69-2.97,2.07-4.21c1.38-1.24,3.31-2.21,5.78-2.93
		c2.47-0.71,5.28-1.07,8.42-1.07c4.23,0,7.23,0.74,8.99,2.21c1.76,1.48,2.64,3.95,2.64,7.42V72.11z M164.63,60.05l-5.92,2.14
		c-2.33,0.86-4.01,1.9-5.03,3.14c-1.02,1.24-1.54,2.81-1.54,4.71c0,2,0.49,3.56,1.46,4.67c0.97,1.12,2.39,1.68,4.25,1.68
		c2.95,0,5.21-1.36,6.78-4.07V60.05z"/>
	<path class="st0" d="M181.33,63.19h2.43c1.14,4.66,2.84,8.24,5.1,10.74c2.26,2.5,5.1,3.75,8.53,3.75c2.86,0,5.11-0.86,6.78-2.57
		c1.66-1.71,2.5-3.93,2.5-6.64c0-2.76-0.82-4.84-2.46-6.25c-1.64-1.4-3.87-2.65-6.67-3.75l-2.93-1.14c-2.57-1-4.72-2.06-6.46-3.18
		c-1.74-1.12-3.19-2.64-4.35-4.57c-1.17-1.93-1.75-4.34-1.75-7.24c0-2.71,0.7-5.1,2.11-7.17c1.4-2.07,3.4-3.68,6-4.82
		c2.59-1.14,5.58-1.71,8.96-1.71c2.47,0,4.85,0.27,7.14,0.82c2.28,0.55,4.09,1.25,5.42,2.11v11.63h-2.28
		c-0.81-4-2.09-6.95-3.85-8.85c-1.76-1.9-4.07-2.85-6.92-2.85c-2.76,0-4.89,0.81-6.39,2.43c-1.5,1.62-2.25,3.64-2.25,6.07
		c0,2.14,0.68,3.83,2.03,5.07c1.36,1.24,3.34,2.4,5.96,3.5l3.93,1.64c2.66,1.14,4.9,2.3,6.71,3.46c1.81,1.17,3.32,2.76,4.53,4.78
		c1.21,2.02,1.82,4.56,1.82,7.6c0,4.43-1.58,7.95-4.75,10.56c-3.16,2.62-7.6,3.93-13.31,3.93c-2.76,0-5.51-0.38-8.24-1.14
		c-2.74-0.76-4.94-1.79-6.6-3.07L181.33,63.19z"/>
	<path class="st0" d="M248.78,72.11c0,1.48,0.11,2.47,0.32,3c0.21,0.52,0.61,0.79,1.18,0.79c0.47,0,0.94-0.15,1.39-0.46
		c0.45-0.31,1.01-0.84,1.68-1.61l1.57,1.71c-1.43,1.71-2.83,2.97-4.21,3.78c-1.38,0.81-2.86,1.21-4.43,1.21
		c-1.43,0-2.56-0.38-3.39-1.14c-0.83-0.76-1.46-1.95-1.89-3.57c-2.43,3.14-5.97,4.71-10.63,4.71c-3.38,0-6.03-0.84-7.96-2.53
		c-1.93-1.69-2.89-3.98-2.89-6.89c0-2.09,0.36-3.76,1.07-5c0.71-1.24,1.83-2.28,3.36-3.14c1.52-0.86,3.76-1.76,6.71-2.71l9.85-3.21
		V54.2c0-2.81-0.44-4.87-1.32-6.17c-0.88-1.31-2.27-1.96-4.18-1.96c-2.19,0-3.93,0.76-5.21,2.28c-1.28,1.52-1.93,3.55-1.93,6.07
		v0.36c-0.71,0.43-1.64,0.64-2.78,0.64c-1.33,0-2.37-0.33-3.1-1c-0.74-0.67-1.11-1.57-1.11-2.71c0-1.57,0.69-2.97,2.07-4.21
		c1.38-1.24,3.31-2.21,5.78-2.93c2.47-0.71,5.28-1.07,8.42-1.07c4.23,0,7.23,0.74,8.99,2.21c1.76,1.48,2.64,3.95,2.64,7.42V72.11z
		 M240.5,60.05l-5.92,2.14c-2.33,0.86-4.01,1.9-5.03,3.14c-1.02,1.24-1.53,2.81-1.53,4.71c0,2,0.49,3.56,1.46,4.67
		c0.97,1.12,2.39,1.68,4.25,1.68c2.95,0,5.21-1.36,6.78-4.07V60.05z"/>
	<path class="st0" d="M268.91,76.04l4.78,1.43v2.28h-18.06v-2.28l4.85-1.43v-42.4l-5.5-1.28v-2.28l12.78-2l1.14,1V76.04z"/>
	<path class="st0" d="M289.47,76.04l4.78,1.43v2.28h-18.06v-2.28l4.85-1.43v-42.4l-5.5-1.28v-2.28l12.78-2l1.14,1V76.04z"/>
	<path class="st0" d="M329.65,69.19c-1.48,3.95-3.41,6.83-5.82,8.64c-2.4,1.81-5.49,2.71-9.24,2.71c-11.61,0-17.42-6.14-17.42-18.42
		c0-5.76,1.57-10.3,4.71-13.63c3.14-3.33,7.45-5,12.92-5c4.76,0,8.41,1.3,10.96,3.89c2.55,2.59,3.82,6.34,3.82,11.24
		c0,0.76-0.19,1.35-0.57,1.75c-0.38,0.41-0.93,0.61-1.64,0.61h-21.06c-0.29,10.47,2.93,15.7,9.64,15.7c2.57,0,4.73-0.68,6.5-2.03
		c1.76-1.36,3.31-3.51,4.64-6.46L329.65,69.19z M308.59,49.31c-1.38,2.17-2.12,5.06-2.21,8.67h14.77V57.7c0-3.9-0.6-6.82-1.78-8.74
		c-1.19-1.93-3-2.89-5.42-2.89C311.76,46.06,309.97,47.15,308.59,49.31z"/>
	<text transform="matrix(1 0 0 1 331.0853 53.9119)" class="st0 st1 st2">®</text>
</g>
</svg>
