<?xml version="1.0" encoding="utf-8"?>
<!-- Generator: Adobe Illustrator 25.4.1, SVG Export Plug-In . SVG Version: 6.00 Build 0)  -->
<svg version="1.1" id="Layer_1" xmlns="http://www.w3.org/2000/svg" xmlns:xlink="http://www.w3.org/1999/xlink" x="0px" y="0px"
	 viewBox="0 0 16 18" style="enable-background:new 0 0 16 18;" xml:space="preserve">
<style type="text/css">
	.st0{fill:#FFFFFF;}
</style>
<path class="st0" d="M13,12.4c-0.6,0-1.2,0.2-1.6,0.6L5.4,9.6c0-0.2,0.1-0.4,0.1-0.6s0-0.4-0.1-0.6L11.3,5c0.4,0.4,1,0.7,1.7,0.7
	c1.4,0,2.5-1.1,2.5-2.5c0-1.4-1.1-2.5-2.5-2.5s-2.5,1.1-2.5,2.5c0,0.2,0,0.4,0.1,0.6L4.7,7.2C4.2,6.8,3.7,6.5,3,6.5
	C1.6,6.5,0.5,7.6,0.5,9c0,1.4,1.1,2.5,2.5,2.5c0.7,0,1.2-0.3,1.7-0.7l5.9,3.5c0,0.2-0.1,0.4-0.1,0.5c0,1.3,1.1,2.4,2.4,2.4
	s2.4-1.1,2.4-2.4C15.4,13.5,14.3,12.4,13,12.4z M13,2.3c0.5,0,0.8,0.4,0.8,0.8C13.8,3.6,13.5,4,13,4s-0.8-0.4-0.8-0.8
	C12.2,2.7,12.5,2.3,13,2.3z M3,9.8C2.5,9.8,2.2,9.5,2.2,9c0-0.5,0.4-0.8,0.8-0.8S3.8,8.5,3.8,9C3.8,9.5,3.5,9.8,3,9.8z M13,15.7
	c-0.5,0-0.8-0.4-0.8-0.8c0-0.5,0.4-0.8,0.8-0.8s0.8,0.4,0.8,0.8C13.8,15.3,13.5,15.7,13,15.7z"/>
</svg>
