<svg width="16" height="18" viewBox="0 0 16 18" fill="none" xmlns="http://www.w3.org/2000/svg">
<path d="M13 12.4003C12.3667 12.4003 11.8 12.6503 11.3667 13.042L5.425 9.58366C5.46667 9.39199 5.5 9.20033 5.5 9.00033C5.5 8.80033 5.46667 8.60866 5.425 8.41699L11.3 4.99199C11.75 5.40866 12.3417 5.66699 13 5.66699C14.3833 5.66699 15.5 4.55033 15.5 3.16699C15.5 1.78366 14.3833 0.666992 13 0.666992C11.6167 0.666992 10.5 1.78366 10.5 3.16699C10.5 3.36699 10.5333 3.55866 10.575 3.75033L4.7 7.17533C4.25 6.75866 3.65833 6.50033 3 6.50033C1.61667 6.50033 0.5 7.61699 0.5 9.00033C0.5 10.3837 1.61667 11.5003 3 11.5003C3.65833 11.5003 4.25 11.242 4.7 10.8253L10.6333 14.292C10.5917 14.467 10.5667 14.6503 10.5667 14.8337C10.5667 16.1753 11.6583 17.267 13 17.267C14.3417 17.267 15.4333 16.1753 15.4333 14.8337C15.4333 13.492 14.3417 12.4003 13 12.4003ZM13 2.33366C13.4583 2.33366 13.8333 2.70866 13.8333 3.16699C13.8333 3.62533 13.4583 4.00033 13 4.00033C12.5417 4.00033 12.1667 3.62533 12.1667 3.16699C12.1667 2.70866 12.5417 2.33366 13 2.33366ZM3 9.83366C2.54167 9.83366 2.16667 9.45866 2.16667 9.00033C2.16667 8.54199 2.54167 8.16699 3 8.16699C3.45833 8.16699 3.83333 8.54199 3.83333 9.00033C3.83333 9.45866 3.45833 9.83366 3 9.83366ZM13 15.6837C12.5417 15.6837 12.1667 15.3087 12.1667 14.8503C12.1667 14.392 12.5417 14.017 13 14.017C13.4583 14.017 13.8333 14.392 13.8333 14.8503C13.8333 15.3087 13.4583 15.6837 13 15.6837Z" fill="#470C75"/>
</svg>
