<svg width="62" height="10" viewBox="0 0 62 10" fill="none" xmlns="http://www.w3.org/2000/svg">
<path fill-rule="evenodd" clip-rule="evenodd" d="M8.80828 0.422241C8.53802 0.422241 8.31893 0.638625 8.31893 0.905549C8.31893 1.17247 8.53802 1.38886 8.80828 1.38886H10.8946L12.3283 4.70506C11.6805 5.13979 11.255 5.87343 11.255 6.70524C11.255 8.03985 12.3505 9.12177 13.7018 9.12177C15.0531 9.12177 16.1485 8.03985 16.1485 6.70524C16.1485 5.37062 15.0531 4.2887 13.7018 4.2887C13.5221 4.2887 13.347 4.30782 13.1784 4.3441L11.6267 0.754812C11.5588 0.597716 11.409 0.493071 11.2405 0.478929C11.1719 0.44275 11.0936 0.422241 11.0103 0.422241H8.80828ZM4.89349 9.12177C6.21281 9.12177 7.31041 8.18421 7.54053 6.94689H8.80828C10.1596 6.94689 11.255 5.86497 11.255 4.53035C11.255 3.19574 10.1596 2.11382 8.80828 2.11382H2.93181L2.31741 0.857444C2.19987 0.617088 1.9073 0.516351 1.66394 0.632441C1.42058 0.748532 1.31858 1.03749 1.43612 1.27784L1.84494 2.11382H0.489349C0.219089 2.11382 0 2.3302 0 2.59712V5.01366C0 6.08135 0.876356 6.94689 1.9574 6.94689H2.24645C2.47657 8.18421 3.57417 9.12177 4.89349 9.12177ZM8.80828 5.98028H7.54053C7.31041 4.74295 6.21281 3.80539 4.89349 3.80539C3.57417 3.80539 2.47657 4.74295 2.24645 5.98028H1.9574C1.41688 5.98028 0.978698 5.54751 0.978698 5.01366V3.08043H8.80828C9.61906 3.08043 10.2763 3.72958 10.2763 4.53035C10.2763 5.33112 9.61906 5.98028 8.80828 5.98028ZM6.60619 6.46375C6.60619 7.39798 5.83938 8.15532 4.89347 8.15532C3.94756 8.15532 3.18075 7.39798 3.18075 6.46375C3.18075 5.52952 3.94756 4.77217 4.89347 4.77217C5.83938 4.77217 6.60619 5.52952 6.60619 6.46375ZM13.7018 8.1552C14.5125 8.1552 15.1698 7.50604 15.1698 6.70527C15.1698 5.9045 14.5125 5.25535 13.7018 5.25535C12.891 5.25535 12.2337 5.9045 12.2337 6.70527C12.2337 7.50604 12.891 8.1552 13.7018 8.1552Z" fill="#ECA106"/>
<path d="M23.1128 2.93395H24.8698C24.8444 1.41711 23.5743 0.369861 21.6437 0.369861C19.7427 0.369861 18.3498 1.40048 18.3583 2.94642C18.354 4.20145 19.2558 4.92039 20.7207 5.26532L21.6648 5.49804C22.609 5.72245 23.134 5.98842 23.1382 6.56191C23.134 7.18527 22.5328 7.60915 21.6013 7.60915C20.6487 7.60915 19.9629 7.17696 19.9036 6.32503H18.1296C18.1762 8.16602 19.5183 9.11768 21.6225 9.11768C23.7394 9.11768 24.9841 8.12446 24.9883 6.56606C24.9841 5.14896 23.896 4.39677 22.3888 4.06431L21.6098 3.88146C20.8562 3.71107 20.2254 3.43679 20.2381 2.8259C20.2381 2.27734 20.7334 1.87424 21.631 1.87424C22.5074 1.87424 23.045 2.26488 23.1128 2.93395Z" fill="#ECA106"/>
<path d="M26.1876 8.99717H27.9912V2.61396H26.1876V8.99717ZM27.0936 1.79112C27.6313 1.79112 28.0716 1.38802 28.0716 0.893483C28.0716 0.403107 27.6313 0 27.0936 0C26.5601 0 26.1198 0.403107 26.1198 0.893483C26.1198 1.38802 26.5601 1.79112 27.0936 1.79112Z" fill="#ECA106"/>
<path d="M31.8322 9.10106C32.8822 9.10106 33.4284 8.50679 33.6782 7.97486H33.7544V8.99717H35.5326V0.486221H33.7332V3.68614H33.6782C33.4368 3.16667 32.9161 2.53084 31.828 2.53084C30.4012 2.53084 29.1946 3.61965 29.1946 5.81387C29.1946 7.94992 30.3504 9.10106 31.8322 9.10106ZM32.4038 7.69227C31.5189 7.69227 31.0363 6.9193 31.0363 5.80556C31.0363 4.70014 31.5105 3.93964 32.4038 3.93964C33.2802 3.93964 33.7713 4.66689 33.7713 5.80556C33.7713 6.94423 33.2717 7.69227 32.4038 7.69227Z" fill="#ECA106"/>
<path d="M39.9791 9.12184C41.5879 9.12184 42.6718 8.35303 42.9258 7.16864L41.2577 7.0606C41.0756 7.54682 40.6099 7.80032 40.0087 7.80032C39.1069 7.80032 38.5354 7.21436 38.5354 6.26269V6.25854H42.9639V5.77232C42.9639 3.60302 41.626 2.53084 39.9071 2.53084C37.9934 2.53084 36.7529 3.86483 36.7529 5.83465C36.7529 7.8585 37.9765 9.12184 39.9791 9.12184ZM38.5354 5.16142C38.5735 4.43417 39.1366 3.85237 39.9367 3.85237C40.72 3.85237 41.2619 4.40092 41.2661 5.16142H38.5354Z" fill="#ECA106"/>
<path d="M47.0791 9.12184C48.8107 9.12184 49.8988 8.12446 49.9835 6.65749H48.2815C48.1757 7.33903 47.7184 7.72136 47.1003 7.72136C46.2578 7.72136 45.7116 7.02735 45.7116 5.80556C45.7116 4.6004 46.262 3.91055 47.1003 3.91055C47.7608 3.91055 48.1841 4.33859 48.2815 4.97442H49.9835C49.9073 3.49913 48.7684 2.53084 47.0706 2.53084C45.0977 2.53084 43.8784 3.87315 43.8784 5.8305C43.8784 7.77123 45.0765 9.12184 47.0791 9.12184Z" fill="#ECA106"/>
<path d="M52.9926 9.11768C53.9537 9.11768 54.5761 8.70627 54.8936 8.112H54.9444V8.99717H56.6549V4.69183C56.6549 3.17083 55.3424 2.53084 53.8944 2.53084C52.3364 2.53084 51.3118 3.26225 51.062 4.42586L52.7301 4.55884C52.8529 4.13496 53.2382 3.82328 53.886 3.82328C54.4999 3.82328 54.8513 4.12665 54.8513 4.65027V4.6752C54.8513 5.08662 54.4067 5.14065 53.2763 5.24869C51.9892 5.36505 50.8334 5.78894 50.8334 7.21436C50.8334 8.4777 51.7521 9.11768 52.9926 9.11768ZM53.5092 7.8959C52.9545 7.8959 52.5566 7.6424 52.5566 7.15618C52.5566 6.65749 52.9757 6.4123 53.6108 6.32503C54.0045 6.27101 54.648 6.17958 54.864 6.03828V6.71567C54.864 7.38474 54.3009 7.8959 53.5092 7.8959Z" fill="#ECA106"/>
<path d="M58.0541 8.99717H59.8577V5.38583C59.8577 4.6004 60.442 4.06015 61.2379 4.06015C61.4877 4.06015 61.8306 4.10171 62 4.15574V2.58487C61.8391 2.54747 61.6147 2.52253 61.4327 2.52253C60.7045 2.52253 60.1075 2.93811 59.8704 3.7277H59.8027V2.61396H58.0541V8.99717Z" fill="#ECA106"/>
</svg>
