<svg width="96" height="80" viewBox="0 0 96 80" fill="none" xmlns="http://www.w3.org/2000/svg">
<path d="M16.9442 21.8065C18.1355 21.2255 19.5723 21.7202 20.1534 22.9116L23.0512 28.8236C23.6354 30.0155 23.1413 31.4552 21.9483 32.037V32.037C20.7586 32.6173 19.3237 32.1248 18.7412 30.9363L15.8391 25.0157C15.2581 23.8244 15.7528 22.3876 16.9442 21.8065Z" fill="#ECA106"/>
<path fill-rule="evenodd" clip-rule="evenodd" d="M61.1633 25.6H51.2008C49.8753 25.6 48.8008 24.5255 48.8008 23.2C48.8008 21.8745 49.8753 20.8 51.2008 20.8H62.2255C62.5641 20.7269 62.9073 20.7299 63.2336 20.8003C63.8451 20.8126 64.3724 21.168 64.6309 21.6818C64.7528 21.8402 64.8568 22.0166 64.9385 22.2092L74.0406 39.8829C74.5585 41.103 73.9892 42.512 72.7691 43.0299C71.549 43.5478 70.1401 42.9785 69.6222 41.7584L61.1633 25.6Z" fill="#ECA106"/>
<path d="M87.2012 51.2C87.2012 57.8274 81.8286 63.2 75.2012 63.2C68.5738 63.2 63.2012 57.8274 63.2012 51.2C63.2012 44.5726 68.5738 39.2 75.2012 39.2C81.8286 39.2 87.2012 44.5726 87.2012 51.2ZM68.0012 51.2C68.0012 55.1765 71.2247 58.4 75.2012 58.4C79.1776 58.4 82.4012 55.1765 82.4012 51.2C82.4012 47.2236 79.1776 44 75.2012 44C71.2247 44 68.0012 47.2236 68.0012 51.2Z" fill="#ECA106"/>
<path d="M13.6008 42.6276V33.6H51.2008C55.1772 33.6 58.4008 36.8235 58.4008 40.8C58.4008 44.7764 55.1772 48 51.2008 48H44.8008C43.4753 48 42.4008 49.0745 42.4008 50.4V50.4C42.4008 51.7255 43.4753 52.8 44.8008 52.8H51.2008C57.8282 52.8 63.2008 47.4274 63.2008 40.8C63.2008 34.1726 57.8282 28.8 51.2008 28.8H11.3913C9.96058 28.8 8.80078 29.9598 8.80078 31.3905V42.6276C8.80078 48.2457 13.3551 52.8 18.9731 52.8H20.8008C22.1263 52.8 23.2008 51.7255 23.2008 50.4V50.4C23.2008 49.0745 22.1263 48 20.8008 48H18.9731C16.0061 48 13.6008 45.5947 13.6008 42.6276Z" fill="#ECA106"/>
<path d="M45.6 50.4C45.6 57.4692 39.8692 63.2 32.8 63.2C25.7308 63.2 20 57.4692 20 50.4C20 43.3307 25.7308 37.6 32.8 37.6C39.8692 37.6 45.6 43.3307 45.6 50.4ZM25.12 50.4C25.12 54.6415 28.5585 58.08 32.8 58.08C37.0415 58.08 40.48 54.6415 40.48 50.4C40.48 46.1584 37.0415 42.72 32.8 42.72C28.5585 42.72 25.12 46.1584 25.12 50.4Z" fill="#ECA106"/>
</svg>
