<svg width="14" height="18" viewBox="0 0 14 18" fill="none" xmlns="http://www.w3.org/2000/svg">
<path d="M13.6663 6.45033C13.6577 6.37377 13.6409 6.29835 13.6163 6.22533V6.15033C13.5763 6.06464 13.5228 5.98588 13.458 5.91699L8.45801 0.916992C8.38912 0.852172 8.31036 0.798726 8.22467 0.758659H8.14967C8.06502 0.71011 7.97153 0.678946 7.87467 0.666992H2.83301C2.16997 0.666992 1.53408 0.930384 1.06524 1.39923C0.5964 1.86807 0.333008 2.50395 0.333008 3.16699V14.8337C0.333008 15.4967 0.5964 16.1326 1.06524 16.6014C1.53408 17.0703 2.16997 17.3337 2.83301 17.3337H11.1663C11.8294 17.3337 12.4653 17.0703 12.9341 16.6014C13.4029 16.1326 13.6663 15.4967 13.6663 14.8337V6.50033C13.6663 6.50033 13.6663 6.50033 13.6663 6.45033ZM8.66634 3.50866L10.8247 5.66699H9.49967C9.27866 5.66699 9.0667 5.57919 8.91042 5.42291C8.75414 5.26663 8.66634 5.05467 8.66634 4.83366V3.50866ZM11.9997 14.8337C11.9997 15.0547 11.9119 15.2666 11.7556 15.4229C11.5993 15.5792 11.3874 15.667 11.1663 15.667H2.83301C2.61199 15.667 2.40003 15.5792 2.24375 15.4229C2.08747 15.2666 1.99967 15.0547 1.99967 14.8337V3.16699C1.99967 2.94598 2.08747 2.73402 2.24375 2.57774C2.40003 2.42146 2.61199 2.33366 2.83301 2.33366H6.99967V4.83366C6.99967 5.4967 7.26307 6.13259 7.73191 6.60143C8.20075 7.07027 8.83663 7.33366 9.49967 7.33366H11.9997V14.8337Z" fill="#3A8DDF"/>
</svg>
