<svg width="22" height="28" viewBox="0 0 22 28" fill="none" xmlns="http://www.w3.org/2000/svg">
<path d="M14.9999 0.666748H2.99992C1.53325 0.666748 0.333252 1.86675 0.333252 3.33341V24.6667C0.333252 26.1334 1.53325 27.3334 2.99992 27.3334H18.9999C20.4666 27.3334 21.6666 26.1334 21.6666 24.6667V7.33342L14.9999 0.666748ZM2.99992 24.6667V3.33341H13.6666V8.66675H18.9999V24.6667H2.99992ZM16.3333 11.3334V18.0001C16.3333 20.9467 13.9466 23.3334 10.9999 23.3334C8.05325 23.3334 5.66658 20.9467 5.66658 18.0001V9.33342C5.66658 7.37341 7.34659 5.81342 9.34659 6.01342C11.0799 6.18675 12.3333 7.77342 12.3333 9.52008V18.0001H9.66658V9.33342C9.66658 8.96008 9.37325 8.66675 8.99992 8.66675C8.62659 8.66675 8.33325 8.96008 8.33325 9.33342V18.0001C8.33325 19.4667 9.53325 20.6667 10.9999 20.6667C12.4666 20.6667 13.6666 19.4667 13.6666 18.0001V11.3334H16.3333Z" fill="#2E86DE"/>
</svg>
