<svg width="140" height="21" viewBox="0 0 140 21" fill="none" xmlns="http://www.w3.org/2000/svg">
<path fill-rule="evenodd" clip-rule="evenodd" d="M19.8897 0.953613C19.2794 0.953613 18.7847 1.44222 18.7847 2.04495C18.7847 2.64768 19.2794 3.13629 19.8897 3.13629H24.6008L27.8381 10.6245C26.3754 11.6061 25.4146 13.2628 25.4146 15.141C25.4146 18.1547 27.8881 20.5977 30.9395 20.5977C33.9908 20.5977 36.4644 18.1547 36.4644 15.141C36.4644 12.1274 33.9908 9.68433 30.9395 9.68433C30.5339 9.68433 30.1385 9.7275 29.7577 9.80943L26.2538 1.70458C26.1004 1.34985 25.7622 1.11355 25.3818 1.08162C25.2269 0.999924 25.05 0.953613 24.8621 0.953613H19.8897ZM11.0498 20.5977C14.0289 20.5977 16.5074 18.4806 17.027 15.6867H19.8897C22.941 15.6867 25.4146 13.2436 25.4146 10.23C25.4146 7.21635 22.941 4.7733 19.8897 4.7733H6.62023L5.23286 1.93633C4.96744 1.39359 4.3068 1.16612 3.75728 1.42826C3.20776 1.6904 2.97744 2.34288 3.24286 2.88562L4.16599 4.7733H1.10498C0.494717 4.7733 0 5.26191 0 5.86464V11.3213C0 13.7323 1.97887 15.6867 4.41992 15.6867H5.07262C5.59225 18.4806 8.0707 20.5977 11.0498 20.5977ZM19.8897 13.504H17.027C16.5074 10.7101 14.0289 8.59299 11.0498 8.59299C8.0707 8.59299 5.59225 10.7101 5.07262 13.504H4.41992C3.1994 13.504 2.20996 12.5268 2.20996 11.3213V6.95598H19.8897C21.7205 6.95598 23.2046 8.42181 23.2046 10.23C23.2046 12.0382 21.7205 13.504 19.8897 13.504ZM14.9172 14.5955C14.9172 16.705 13.1857 18.4152 11.0498 18.4152C8.91385 18.4152 7.18235 16.705 7.18235 14.5955C7.18235 12.4859 8.91385 10.7758 11.0498 10.7758C13.1857 10.7758 14.9172 12.4859 14.9172 14.5955ZM30.9394 18.4152C32.7702 18.4152 34.2544 16.9494 34.2544 15.1412C34.2544 13.333 32.7702 11.8672 30.9394 11.8672C29.1087 11.8672 27.6245 13.333 27.6245 15.1412C27.6245 16.9494 29.1087 18.4152 30.9394 18.4152Z" fill="white"/>
<path d="M52.2452 6.75444H56.2102C56.1529 3.26241 53.2866 0.851481 48.9299 0.851481C44.6401 0.851481 41.4968 3.22415 41.5159 6.78314C41.5064 9.67244 43.5414 11.3276 46.8471 12.1216L48.9777 12.6574C51.1083 13.174 52.293 13.7863 52.3025 15.1066C52.293 16.5417 50.9363 17.5175 48.8344 17.5175C46.6847 17.5175 45.1369 16.5226 45.0032 14.5613H41C41.1051 18.7995 44.1338 20.9904 48.8822 20.9904C53.6592 20.9904 56.4682 18.7039 56.4777 15.1162C56.4682 11.8538 54.0127 10.1221 50.6115 9.35672L48.8535 8.93576C47.1529 8.54351 45.7293 7.91207 45.758 6.5057C45.758 5.24283 46.8758 4.31481 48.9013 4.31481C50.879 4.31481 52.0924 5.21412 52.2452 6.75444Z" fill="white"/>
<path d="M59.1839 20.713H63.254V6.01777H59.1839V20.713ZM61.2285 4.12346C62.4419 4.12346 63.4355 3.19545 63.4355 2.05695C63.4355 0.928019 62.4419 0 61.2285 0C60.0247 0 59.031 0.928019 59.031 2.05695C59.031 3.19545 60.0247 4.12346 61.2285 4.12346Z" fill="white"/>
<path d="M71.922 20.9522C74.2914 20.9522 75.5239 19.5841 76.0876 18.3595H76.2596V20.713H80.2723V1.11936H76.2118V8.4861H76.0876C75.543 7.29021 74.3678 5.82642 71.9124 5.82642C68.6927 5.82642 65.9697 8.33303 65.9697 13.3845C65.9697 18.302 68.578 20.9522 71.922 20.9522ZM73.2118 17.7089C71.215 17.7089 70.1258 15.9294 70.1258 13.3654C70.1258 10.8205 71.1959 9.0697 73.2118 9.0697C75.1895 9.0697 76.2978 10.744 76.2978 13.3654C76.2978 15.9868 75.1704 17.7089 73.2118 17.7089Z" fill="white"/>
<path d="M90.3065 21C93.9371 21 96.383 19.2301 96.9562 16.5034L93.1919 16.2547C92.781 17.374 91.7301 17.9576 90.3734 17.9576C88.3384 17.9576 87.0486 16.6087 87.0486 14.4178V14.4082H97.0422V13.2888C97.0422 8.29476 94.0231 5.82642 90.1441 5.82642C85.8256 5.82642 83.0263 8.89749 83.0263 13.4323C83.0263 18.0916 85.7874 21 90.3065 21ZM87.0486 11.8825C87.1346 10.2082 88.4053 8.86879 90.211 8.86879C91.9785 8.86879 93.2014 10.1317 93.211 11.8825H87.0486Z" fill="white"/>
<path d="M106.329 21C110.236 21 112.692 18.7039 112.883 15.3267H109.042C108.803 16.8957 107.771 17.7759 106.377 17.7759C104.475 17.7759 103.243 16.1781 103.243 13.3654C103.243 10.5909 104.485 9.00273 106.377 9.00273C107.867 9.00273 108.822 9.98815 109.042 11.4519H112.883C112.711 8.05558 110.141 5.82642 106.31 5.82642C101.857 5.82642 99.1059 8.91663 99.1059 13.4228C99.1059 17.8907 101.81 21 106.329 21Z" fill="white"/>
<path d="M119.674 20.9904C121.842 20.9904 123.247 20.0433 123.963 18.6752H124.078V20.713H127.938V10.8014C127.938 7.29977 124.976 5.82642 121.709 5.82642C118.193 5.82642 115.881 7.51025 115.317 10.1891L119.081 10.4952C119.358 9.51936 120.228 8.80182 121.689 8.80182C123.075 8.80182 123.868 9.50023 123.868 10.7057V10.7631C123.868 11.7103 122.865 11.8346 120.314 12.0834C117.409 12.3513 114.801 13.3271 114.801 16.6087C114.801 19.5171 116.874 20.9904 119.674 20.9904ZM120.839 18.1777C119.588 18.1777 118.689 17.5941 118.689 16.4747C118.689 15.3267 119.635 14.7622 121.068 14.5613C121.957 14.4369 123.409 14.2264 123.896 13.9011V15.4606C123.896 17.0009 122.626 18.1777 120.839 18.1777Z" fill="white"/>
<path d="M131.096 20.713H135.166V12.3991C135.166 10.5909 136.484 9.34715 138.28 9.34715C138.844 9.34715 139.618 9.44282 140 9.5672V5.9508C139.637 5.86469 139.131 5.80729 138.72 5.80729C137.076 5.80729 135.729 6.76401 135.194 8.58178H135.041V6.01777H131.096V20.713Z" fill="white"/>
</svg>
