<svg width="188" height="29" viewBox="0 0 188 29" fill="none" xmlns="http://www.w3.org/2000/svg">
<path fill-rule="evenodd" clip-rule="evenodd" d="M26.7037 1.95923C25.8843 1.95923 25.2201 2.61523 25.2201 3.42445C25.2201 4.23367 25.8843 4.88967 26.7037 4.88967H33.0288L37.3752 14.9432C35.4114 16.2612 34.1213 18.4854 34.1213 21.0071C34.1213 25.0532 37.4423 28.3332 41.539 28.3332C45.6357 28.3332 48.9567 25.0532 48.9567 21.0071C48.9567 16.961 45.6357 13.681 41.539 13.681C40.9945 13.681 40.4636 13.739 39.9524 13.849L35.2481 2.96747C35.0422 2.49121 34.5881 2.17396 34.0773 2.13109C33.8694 2.0214 33.6318 1.95923 33.3796 1.95923H26.7037ZM14.8354 28.3332C18.8351 28.3332 22.1626 25.4909 22.8603 21.7397H26.7037C30.8003 21.7397 34.1213 18.4597 34.1213 14.4136C34.1213 10.3675 30.8003 7.0875 26.7037 7.0875H8.88825L7.02559 3.27861C6.66924 2.54994 5.78227 2.24454 5.04449 2.59648C4.3067 2.94843 3.99748 3.82445 4.35383 4.55312L5.59322 7.0875H1.48354C0.664202 7.0875 0 7.7435 0 8.55272V15.8788C0 19.1157 2.65681 21.7397 5.93415 21.7397H6.81045C7.5081 25.4909 10.8356 28.3332 14.8354 28.3332ZM26.7037 18.8093H22.8603C22.1626 15.0581 18.8351 12.2158 14.8354 12.2158C10.8356 12.2158 7.5081 15.0581 6.81045 18.8093H5.93415C4.29548 18.8093 2.96707 17.4973 2.96707 15.8788V10.0179H26.7037C29.1617 10.0179 31.1543 11.9859 31.1543 14.4136C31.1543 16.8413 29.1617 18.8093 26.7037 18.8093ZM20.0277 20.2746C20.0277 23.1069 17.703 25.4029 14.8353 25.4029C11.9677 25.4029 9.64294 23.1069 9.64294 20.2746C9.64294 17.4424 11.9677 15.1464 14.8353 15.1464C17.703 15.1464 20.0277 17.4424 20.0277 20.2746ZM41.539 25.403C43.997 25.403 45.9896 23.435 45.9896 21.0074C45.9896 18.5797 43.997 16.6117 41.539 16.6117C39.081 16.6117 37.0884 18.5797 37.0884 21.0074C37.0884 23.435 39.081 25.403 41.539 25.403Z" fill="#ECA106"/>
<path d="M70.0701 9.57368H75.3967C75.3197 4.97513 71.4691 1.80024 65.6162 1.80024C59.8532 1.80024 55.6303 4.92474 55.656 9.61147C55.6432 13.4163 58.3771 15.5959 62.8181 16.6416L65.6804 17.3471C68.5427 18.0274 70.1343 18.8338 70.1471 20.5724C70.1343 22.4622 68.3116 23.7473 65.4879 23.7473C62.5999 23.7473 60.5206 22.437 60.3409 19.8543H54.9629C55.1041 25.4355 59.1729 28.3206 65.552 28.3206C71.9697 28.3206 75.7433 25.3095 75.7561 20.585C75.7433 16.2888 72.4446 14.0084 67.8752 13.0005L65.5135 12.4462C63.2288 11.9296 61.3164 11.0981 61.3549 9.24611C61.3549 7.58307 62.8566 6.36099 65.5777 6.36099C68.2346 6.36099 69.8647 7.54528 70.0701 9.57368Z" fill="#ECA106"/>
<path d="M79.3917 27.9553H84.8596V8.60357H79.3917V27.9553ZM82.1385 6.10902C83.7686 6.10902 85.1035 4.88694 85.1035 3.38769C85.1035 1.90104 83.7686 0.678955 82.1385 0.678955C80.5213 0.678955 79.1864 1.90104 79.1864 3.38769C79.1864 4.88694 80.5213 6.10902 82.1385 6.10902Z" fill="#ECA106"/>
<path d="M96.5045 28.2702C99.6876 28.2702 101.343 26.4686 102.101 24.856H102.332V27.9553H107.723V2.15301H102.268V11.854H102.101C101.369 10.2792 99.7903 8.3516 96.4916 8.3516C92.1661 8.3516 88.508 11.6525 88.508 18.3046C88.508 24.7804 92.0121 28.2702 96.5045 28.2702ZM98.2372 23.9992C95.5546 23.9992 94.0914 21.6559 94.0914 18.2794C94.0914 14.9281 95.529 12.6226 98.2372 12.6226C100.894 12.6226 102.383 14.8274 102.383 18.2794C102.383 21.7315 100.868 23.9992 98.2372 23.9992Z" fill="#ECA106"/>
<path d="M121.203 28.3332C126.08 28.3332 129.366 26.0025 130.136 22.4118L125.079 22.0842C124.527 23.5583 123.115 24.3268 121.293 24.3268C118.559 24.3268 116.826 22.5504 116.826 19.6653V19.6527H130.252V18.1786C130.252 11.6021 126.196 8.3516 120.985 8.3516C115.183 8.3516 111.422 12.3958 111.422 18.3676C111.422 24.5032 115.132 28.3332 121.203 28.3332ZM116.826 16.3266C116.942 14.1218 118.649 12.358 121.074 12.358C123.449 12.358 125.092 14.021 125.105 16.3266H116.826Z" fill="#ECA106"/>
<path d="M142.728 28.3332C147.977 28.3332 151.276 25.3095 151.533 20.8622H146.373C146.052 22.9284 144.666 24.0874 142.792 24.0874C140.238 24.0874 138.582 21.9834 138.582 18.2794C138.582 14.6258 140.25 12.5344 142.792 12.5344C144.794 12.5344 146.078 13.8321 146.373 15.7597H151.533C151.302 11.2871 147.849 8.3516 142.702 8.3516C136.721 8.3516 133.024 12.421 133.024 18.355C133.024 24.2386 136.657 28.3332 142.728 28.3332Z" fill="#ECA106"/>
<path d="M160.655 28.3206C163.569 28.3206 165.456 27.0733 166.419 25.2717H166.573V27.9553H171.758V14.9029C171.758 10.2918 167.779 8.3516 163.389 8.3516C158.666 8.3516 155.56 10.569 154.803 14.0966L159.86 14.4998C160.232 13.2147 161.4 12.2698 163.364 12.2698C165.225 12.2698 166.29 13.1895 166.29 14.777V14.8526C166.29 16.0998 164.942 16.2636 161.515 16.5912C157.613 16.9439 154.109 18.229 154.109 22.5504C154.109 26.3804 156.895 28.3206 160.655 28.3206ZM162.221 24.6166C160.54 24.6166 159.333 23.8481 159.333 22.374C159.333 20.8622 160.604 20.1188 162.529 19.8543C163.723 19.6905 165.674 19.4133 166.329 18.9849V21.0385C166.329 23.0669 164.622 24.6166 162.221 24.6166Z" fill="#ECA106"/>
<path d="M176 27.9553H181.468V17.0069C181.468 14.6258 183.239 12.9879 185.652 12.9879C186.41 12.9879 187.449 13.1139 187.963 13.2777V8.51538C187.475 8.40199 186.795 8.3264 186.243 8.3264C184.035 8.3264 182.225 9.58628 181.506 11.98H181.301V8.60357H176V27.9553Z" fill="#ECA106"/>
</svg>
