<svg width="18" height="10" viewBox="0 0 18 10" fill="none" xmlns="http://www.w3.org/2000/svg">
<path opacity="0.87" d="M13.1667 0.833008H9.83333V2.49967H13.1667C14.5417 2.49967 15.6667 3.62467 15.6667 4.99967C15.6667 6.37467 14.5417 7.49967 13.1667 7.49967H9.83333V9.16634H13.1667C15.4667 9.16634 17.3333 7.29967 17.3333 4.99967C17.3333 2.69967 15.4667 0.833008 13.1667 0.833008ZM8.16667 7.49967H4.83333C3.45833 7.49967 2.33333 6.37467 2.33333 4.99967C2.33333 3.62467 3.45833 2.49967 4.83333 2.49967H8.16667V0.833008H4.83333C2.53333 0.833008 0.666666 2.69967 0.666666 4.99967C0.666666 7.29967 2.53333 9.16634 4.83333 9.16634H8.16667V7.49967ZM5.66667 4.16634H12.3333V5.83301H5.66667V4.16634Z" fill="#2E86DE"/>
</svg>
