<svg width="22" height="22" viewBox="0 0 22 22" fill="none" xmlns="http://www.w3.org/2000/svg">
<path d="M11 2.99992C12.4667 2.99992 13.6667 4.19992 13.6667 5.66658C13.6667 7.13325 12.4667 8.33325 11 8.33325C9.53337 8.33325 8.33337 7.13325 8.33337 5.66658C8.33337 4.19992 9.53337 2.99992 11 2.99992ZM11 16.3333C14.6 16.3333 18.7334 18.0533 19 18.9999H3.00004C3.30671 18.0399 7.41337 16.3333 11 16.3333ZM11 0.333252C8.05337 0.333252 5.66671 2.71992 5.66671 5.66658C5.66671 8.61325 8.05337 10.9999 11 10.9999C13.9467 10.9999 16.3334 8.61325 16.3334 5.66658C16.3334 2.71992 13.9467 0.333252 11 0.333252ZM11 13.6666C7.44004 13.6666 0.333374 15.4533 0.333374 18.9999V21.6666H21.6667V18.9999C21.6667 15.4533 14.56 13.6666 11 13.6666Z" fill="#2E86DE"/>
</svg>
